<svg width="32" height="40" viewBox="0 0 32 40" fill="none" xmlns="http://www.w3.org/2000/svg">
<circle cx="16" cy="20" r="16" fill="white"/>
<rect y="4" width="32" height="32" rx="16" fill="#D2D6DA"/>
<path d="M7.92953 25.9262H24.0621C25.2702 25.9262 26 25.1963 26 23.9883V13.9295C26 12.7215 25.2702 12 24.0621 12H7.92953C6.72987 12 6 12.7215 6 13.9295V23.9883C6 25.1963 6.72987 25.9262 7.92953 25.9262ZM7.71141 22.2265C7.45974 22.2265 7.35067 22.1342 7.35067 21.8658V13.9547C7.35067 13.5772 7.58557 13.3507 7.9547 13.3507H24.0453C24.4145 13.3507 24.6494 13.5772 24.6494 13.9547V21.8658C24.6494 22.1342 24.5319 22.2265 24.2803 22.2265H7.71141ZM13.349 27.9229H18.651V25.8171H13.349V27.9229ZM13.2987 28.9044H18.7013C19.0705 28.9044 19.3725 28.6024 19.3725 28.2249C19.3725 27.8474 19.0705 27.5454 18.7013 27.5454H13.2987C12.9295 27.5454 12.6191 27.8474 12.6191 28.2249C12.6191 28.6024 12.9295 28.9044 13.2987 28.9044Z" fill="white"/>
</svg>
