<svg width="32" height="40" viewBox="0 0 32 40" fill="none" xmlns="http://www.w3.org/2000/svg">
<circle cx="16" cy="20" r="16" fill="white"/>
<path d="M32 20C32 28.7529 24.7528 36 16 36C7.26275 36 0 28.7529 0 20C0 11.2627 7.24706 4 15.9843 4C24.7373 4 32 11.2627 32 20ZM14.3372 11.749C13.5059 11.749 13.0823 11.9843 12.6745 12.4392L12 13.1765C11.6392 13.5529 11.451 13.7098 10.8235 13.7098H8.78432C7.07451 13.7098 6.21176 14.5412 6.21176 16.251V24.8C6.21176 26.4784 7.07451 27.3254 8.78432 27.3254H23.2156C24.9097 27.3254 25.7882 26.4784 25.7882 24.8V16.251C25.7882 14.5412 24.9097 13.7098 23.2156 13.7098H21.1295C20.5019 13.7098 20.2824 13.5843 19.9215 13.1765L19.2628 12.4392C18.8705 11.9843 18.447 11.749 17.6 11.749H14.3372ZM20.8471 20.4392C20.8471 23.2 18.6981 25.2862 16.0157 25.2862C13.3333 25.2862 11.1686 23.1529 11.1686 20.4392C11.1686 17.7569 13.3333 15.5922 16.0157 15.5922C18.6981 15.5922 20.8471 17.7569 20.8471 20.4392ZM12.549 20.4392C12.549 22.3529 14.102 23.8901 16 23.8901C17.898 23.8901 19.4509 22.3529 19.4509 20.4392C19.4509 18.5412 17.898 16.9882 16 16.9882C14.102 16.9882 12.549 18.5255 12.549 20.4392ZM23.5608 17.0196C23.5765 17.6314 23.0745 18.1176 22.4784 18.1176C21.8667 18.1176 21.3647 17.6314 21.3647 17.0196C21.3647 16.4078 21.8667 15.9216 22.4784 15.9216C23.0745 15.9216 23.5608 16.4078 23.5608 17.0196Z" fill="#D2D6DA"/>
</svg>
