<svg width="9" height="16" viewBox="0 0 9 16" fill="none" xmlns="http://www.w3.org/2000/svg">
<path d="M0 8C0 8.21972 0.0791016 8.41308 0.246094 8.58007L7.21582 15.3916C7.36523 15.5498 7.55859 15.6289 7.78711 15.6289C8.24414 15.6289 8.5957 15.2861 8.5957 14.8291C8.5957 14.6006 8.49902 14.4072 8.3584 14.2578L1.95996 8L8.3584 1.74218C8.49902 1.59277 8.5957 1.39062 8.5957 1.1709C8.5957 0.713867 8.24414 0.371094 7.78711 0.371094C7.55859 0.371094 7.36523 0.450195 7.21582 0.59961L0.246094 7.41992C0.0791016 7.57812 0 7.78027 0 8Z" fill="#096DE7"/>
</svg>
