<svg width="32" height="40" viewBox="0 0 32 40" fill="none" xmlns="http://www.w3.org/2000/svg">
<circle cx="16" cy="20" r="16" fill="white"/>
<rect y="4" width="32" height="32" rx="16" fill="#9A48D0"/>
<g clip-path="url(#clip0_720_461)">
<path d="M13.5074 16.5329C13.5044 16.8806 13.4853 17.2288 13.4527 17.5769C12.8418 17.3256 12.3744 17.3071 12.1494 17.5355C11.629 18.0481 12.3824 19.8268 14.2464 21.6829C16.1105 23.5548 17.8813 24.3159 18.4017 23.7878C18.6329 23.5602 18.6081 23.0734 18.3366 22.4359C18.6813 22.4032 19.0262 22.3835 19.3706 22.3799C19.7518 23.4763 19.6773 24.445 18.7045 24.8519L8.14949 29.2634C7.00001 29.7449 5.93596 28.6498 6.44856 27.508L11.0931 17.2093C11.519 16.2672 12.4516 16.179 13.5074 16.5329ZM18.8913 21.3208C18.5213 21.3388 18.1502 21.3723 17.7768 21.4234C17.483 20.979 17.1029 20.4998 16.6413 20.0093L17.4035 19.2456C17.9513 19.8542 18.4876 20.5855 18.8913 21.3208ZM16.6343 18.4821L15.8703 19.2447C15.3777 18.7862 14.8981 18.4106 14.455 18.1224C14.5075 17.7476 14.542 17.3745 14.5606 17.0023C15.2907 17.399 16.0201 17.9332 16.6343 18.4821Z" fill="white"/>
<path d="M13.2911 11.9822C13.7571 11.9822 14.1455 11.6017 14.1455 11.1279C14.1455 10.6619 13.7571 10.2813 13.2911 10.2813C12.8096 10.2813 12.4368 10.6619 12.4368 11.1279C12.4368 11.6017 12.8096 11.9822 13.2911 11.9822ZM14.3163 13.4346C14.262 13.1473 14.0756 12.9065 13.7727 12.9065C13.4853 12.9143 13.1901 13.155 13.2523 13.4657C13.6018 15.2909 13.6018 17.1705 13.2523 19.0267C13.1824 19.3297 13.4853 19.5626 13.7649 19.5704C14.06 19.5704 14.2542 19.3374 14.3086 19.05C14.6736 17.1549 14.6736 15.3064 14.3163 13.4346ZM18.091 13.3259C18.9065 13.3259 19.5511 12.6735 19.5511 11.8657C19.5511 11.0425 18.9065 10.4056 18.091 10.4056C17.2754 10.4056 16.6309 11.0425 16.6309 11.8657C16.6309 12.6735 17.2754 13.3259 18.091 13.3259ZM16.6153 15.7724C16.9958 15.7724 17.2988 15.4618 17.2988 15.0812C17.2988 14.7084 16.9958 14.3977 16.6153 14.3977C16.2425 14.3977 15.924 14.7084 15.924 15.0812C15.924 15.4618 16.2425 15.7724 16.6153 15.7724ZM24.4287 12.4249C24.8015 12.4249 25.1044 12.122 25.1044 11.7415C25.1044 11.3609 24.8015 11.0502 24.4287 11.0502C24.0481 11.0502 23.7452 11.3609 23.7452 11.7415C23.7452 12.122 24.0481 12.4249 24.4287 12.4249ZM22.1841 12.9298L20.7317 14.3822C20.522 14.5919 20.5298 14.9336 20.7317 15.1433C20.9492 15.353 21.2909 15.3608 21.5006 15.1433L22.953 13.6987C23.1628 13.489 23.155 13.1395 22.953 12.9298C22.7433 12.7278 22.3938 12.7201 22.1841 12.9298ZM19.3026 15.819L15.3416 19.7723C15.1318 19.9743 15.1396 20.3315 15.3416 20.5413C15.5513 20.7432 15.9086 20.751 16.1105 20.5413L20.0637 16.5802C20.2579 16.3782 20.2657 16.0287 20.0637 15.819C19.8618 15.6093 19.5045 15.6249 19.3026 15.819ZM25.1355 19.3918C25.6092 19.3918 25.9899 19.0112 25.9899 18.5296C25.9899 18.0636 25.6092 17.6831 25.1355 17.6831C24.654 17.6831 24.2811 18.0636 24.2811 18.5296C24.2811 19.0112 24.654 19.3918 25.1355 19.3918ZM21.7958 19.7102C22.487 19.7102 23.0384 19.1743 23.0384 18.483C23.0384 17.7996 22.487 17.2481 21.7958 17.2481C21.1122 17.2481 20.5764 17.7996 20.5764 18.483C20.5764 19.1743 21.1122 19.7102 21.7958 19.7102ZM24.8403 23.3684C25.3141 23.3684 25.6947 22.9956 25.6947 22.514C25.6947 22.0402 25.3141 21.6597 24.8403 21.6597C24.3666 21.6597 23.986 22.0402 23.986 22.514C23.986 22.9956 24.3666 23.3684 24.8403 23.3684ZM22.4714 21.5665C20.5919 21.2092 18.7512 21.2092 16.8483 21.5665C16.5687 21.6286 16.3279 21.8227 16.3357 22.1101C16.3357 22.3975 16.5687 22.7004 16.8794 22.6383C18.7356 22.2888 20.6075 22.281 22.4404 22.6305C22.7356 22.6926 22.9841 22.4053 22.9918 22.1101C22.9996 21.8073 22.751 21.6208 22.4714 21.5665Z" fill="white"/>
</g>
<defs>
<clipPath id="clip0_720_461">
<rect width="20" height="19.4714" fill="white" transform="translate(6.31628 10.2814)"/>
</clipPath>
</defs>
</svg>
