<svg width="1010" height="986" viewBox="0 0 1010 986" fill="none" xmlns="http://www.w3.org/2000/svg">
<rect width="1010" height="986" fill="#EBEDEF"/>
<rect x="64" y="64" width="425" height="858" rx="64" fill="white"/>
<mask id="mask0_767_54208" style="mask-type:alpha" maskUnits="userSpaceOnUse" x="89" y="87" width="375" height="812">
<rect x="89" y="87" width="375" height="812" rx="48" fill="#D9D9D9"/>
</mask>
<g mask="url(#mask0_767_54208)">
<rect x="89" y="87" width="375" height="812" fill="#F4F5F6"/>
<rect x="117" y="236" width="194" height="24" rx="8" fill="#656D76"/>
<rect x="117" y="276" width="302" height="24" rx="8" fill="#B0B7BF"/>
<rect x="117" y="308" width="260" height="24" rx="8" fill="#B0B7BF"/>
<rect x="117" y="340" width="319" height="24" rx="8" fill="#B0B7BF"/>
<rect x="117" y="372" width="275" height="24" rx="8" fill="#B0B7BF"/>
<rect x="117" y="404" width="97" height="24" rx="8" fill="#B0B7BF"/>
<rect x="117" y="476" width="194" height="24" rx="8" fill="#656D76"/>
<rect x="117" y="516" width="260" height="24" rx="8" fill="#B0B7BF"/>
<rect x="117" y="548" width="226" height="24" rx="8" fill="#B0B7BF"/>
<rect x="117" y="580" width="319" height="24" rx="8" fill="#B0B7BF"/>
<rect x="117" y="612" width="152" height="24" rx="8" fill="#B0B7BF"/>
<rect x="117" y="684" width="194" height="24" rx="8" fill="#656D76"/>
<rect x="117" y="724" width="302" height="24" rx="8" fill="#B0B7BF"/>
<rect x="117" y="756" width="226" height="24" rx="8" fill="#B0B7BF"/>
<rect x="117" y="788" width="260" height="24" rx="8" fill="#B0B7BF"/>
<rect x="117" y="820" width="196" height="24" rx="8" fill="#B0B7BF"/>
</g>
<rect x="115.5" y="111.5" width="322" height="76" rx="7.5" fill="#FCEDEB"/>
<rect x="115.5" y="111.5" width="322" height="76" rx="7.5" stroke="#CC392F"/>
<path fill-rule="evenodd" clip-rule="evenodd" d="M143.793 139.958L153.876 157.375C154.04 157.658 154.04 158.008 153.877 158.291C153.713 158.575 153.411 158.75 153.083 158.75H132.917C132.589 158.75 132.287 158.575 132.124 158.291C131.96 158.008 131.96 157.658 132.124 157.375L142.207 139.958C142.384 139.693 142.681 139.534 143 139.534C143.319 139.534 143.616 139.693 143.793 139.958ZM144.092 147.03H141.908L142.09 153.244H143.897L144.092 147.03ZM143 156.143C143.715 156.143 144.222 155.727 144.222 155.025C144.222 154.323 143.715 153.907 143 153.907C142.272 153.907 141.765 154.323 141.765 155.025C141.765 155.727 142.272 156.143 143 156.143Z" fill="#CC392F"/>
<path d="M167.626 144.216C165.448 144.216 164.206 142.812 163.612 142.128L164.638 140.958C165.268 141.804 166.438 142.74 167.788 142.74C169.138 142.74 170.218 141.966 170.218 140.652C170.218 139.41 169.12 139.014 168.202 138.618L166.384 137.844C165.034 137.286 164.17 136.242 164.17 134.73C164.17 132.534 166.168 131.418 168.166 131.418C170.2 131.418 171.388 132.66 171.73 133.02L170.812 134.208C170.2 133.56 169.3 132.876 168.076 132.876C166.852 132.876 165.916 133.452 165.916 134.604C165.916 135.684 166.618 136.134 167.518 136.494L169.714 137.394C171.064 137.952 171.964 139.158 171.964 140.544C171.964 142.956 169.804 144.216 167.626 144.216ZM177.763 144.198C175.207 144.198 173.227 142.416 173.227 139.752C173.227 137.106 175.207 135.288 177.763 135.288C180.301 135.288 182.281 137.106 182.281 139.752C182.281 142.416 180.301 144.198 177.763 144.198ZM177.763 142.722C179.473 142.722 180.535 141.39 180.535 139.698C180.535 138.024 179.473 136.692 177.763 136.692C176.035 136.692 174.973 138.024 174.973 139.698C174.973 141.39 176.035 142.722 177.763 142.722ZM184.086 144V135.45H185.814L185.796 136.764H185.85C186.264 135.792 187.038 135.288 187.956 135.288C188.532 135.288 188.856 135.432 188.856 135.432L188.748 137.034H188.676C188.514 136.962 188.208 136.854 187.74 136.854C186.984 136.854 186.516 137.34 186.336 137.574C186.174 137.808 185.814 138.474 185.814 139.734V144H184.086ZM190.116 144V135.45H191.844L191.826 136.764H191.88C192.294 135.792 193.068 135.288 193.986 135.288C194.562 135.288 194.886 135.432 194.886 135.432L194.778 137.034H194.706C194.544 136.962 194.238 136.854 193.77 136.854C193.014 136.854 192.546 137.34 192.366 137.574C192.204 137.808 191.844 138.474 191.844 139.734V144H190.116ZM197.243 147.474C196.289 147.474 195.623 147.168 195.623 147.168L195.965 145.764C195.965 145.764 196.433 145.962 196.865 145.962C197.225 145.962 197.603 145.998 197.981 144.954L198.395 143.82L194.921 135.432L196.721 135.45L199.313 142.092L201.833 135.432L203.615 135.45L199.493 145.494C198.899 146.97 198.197 147.474 197.243 147.474ZM203.315 146.52L204.575 142.092H206.339L204.683 146.52H203.315ZM214.223 144L211.397 135.45H213.143L215.123 141.912L217.373 135.432H218.759L221.009 141.912L222.989 135.45H224.735L221.909 144H220.325L218.075 137.61L215.807 144H214.223ZM229.806 144.198C227.268 144.198 225.522 142.434 225.522 139.716C225.522 137.016 227.484 135.288 229.86 135.288C232.236 135.288 233.91 136.98 233.91 139.374C233.91 139.698 233.856 140.13 233.856 140.13H227.268C227.358 141.822 228.438 142.848 230.022 142.848C231.624 142.848 232.65 141.984 232.848 141.858L233.568 142.848C233.46 142.938 232.362 144.198 229.806 144.198ZM232.272 138.978C232.254 138.024 231.534 136.53 229.806 136.53C228.096 136.53 227.34 137.952 227.286 138.978H232.272ZM241.029 144L238.203 135.45H239.949L241.929 141.912L244.179 135.432H245.565L247.815 141.912L249.795 135.45H251.541L248.715 144H247.131L244.881 137.61L242.613 144H241.029ZM256.613 144.198C254.075 144.198 252.329 142.434 252.329 139.716C252.329 137.016 254.291 135.288 256.667 135.288C259.043 135.288 260.717 136.98 260.717 139.374C260.717 139.698 260.663 140.13 260.663 140.13H254.075C254.165 141.822 255.245 142.848 256.829 142.848C258.431 142.848 259.457 141.984 259.655 141.858L260.375 142.848C260.267 142.938 259.169 144.198 256.613 144.198ZM259.079 138.978C259.061 138.024 258.341 136.53 256.613 136.53C254.903 136.53 254.147 137.952 254.093 138.978H259.079ZM262.432 144V135.45H264.16L264.142 136.764H264.196C264.61 135.792 265.384 135.288 266.302 135.288C266.878 135.288 267.202 135.432 267.202 135.432L267.094 137.034H267.022C266.86 136.962 266.554 136.854 266.086 136.854C265.33 136.854 264.862 137.34 264.682 137.574C264.52 137.808 264.16 138.474 264.16 139.734V144H262.432ZM272.082 144.198C269.544 144.198 267.798 142.434 267.798 139.716C267.798 137.016 269.76 135.288 272.136 135.288C274.512 135.288 276.186 136.98 276.186 139.374C276.186 139.698 276.132 140.13 276.132 140.13H269.544C269.634 141.822 270.714 142.848 272.298 142.848C273.9 142.848 274.926 141.984 275.124 141.858L275.844 142.848C275.736 142.938 274.638 144.198 272.082 144.198ZM274.548 138.978C274.53 138.024 273.81 136.53 272.082 136.53C270.372 136.53 269.616 137.952 269.562 138.978H274.548ZM277.901 144V135.45H279.629L279.611 136.908C280.079 135.9 281.177 135.288 282.275 135.288C284.705 135.288 285.335 136.89 285.335 138.942V144H283.607V139.23C283.607 137.79 283.355 136.71 281.825 136.71C280.223 136.71 279.629 138.06 279.629 139.698V144H277.901ZM288.539 135.432L288.359 131.58H290.015L289.835 135.432H288.539ZM295.698 144.198C294.798 144.198 294.24 143.856 293.88 143.316C293.52 142.776 293.448 142.11 293.448 140.76V136.854H292.188V135.468H293.448V132.912H295.176V135.468H297.228V136.854H295.176V140.724C295.176 141.444 295.176 141.948 295.392 142.29C295.536 142.578 295.788 142.722 296.274 142.722C296.778 142.722 297.156 142.524 297.156 142.524L297.264 143.91C296.814 144.108 296.292 144.198 295.698 144.198ZM304.514 144.198C302.93 144.198 301.562 143.208 301.562 141.552C301.562 139.878 302.93 139.032 304.91 138.942L307.196 138.852V138.51C307.196 137.214 306.314 136.566 305.072 136.566C303.83 136.566 302.786 137.124 302.498 137.304L301.976 136.152C302.606 135.792 303.758 135.288 305.18 135.288C306.602 135.288 307.43 135.684 308.006 136.26C308.582 136.854 308.924 137.574 308.924 139.032V144H307.25L307.232 142.92C306.89 143.28 306.08 144.198 304.514 144.198ZM305.036 142.974C306.152 142.974 306.89 142.218 307.214 141.732V139.896L305.216 140.022C303.83 140.094 303.272 140.688 303.272 141.498C303.272 142.308 303.902 142.974 305.036 142.974ZM315.929 144.198C314.687 144.198 313.625 143.694 312.923 142.65H312.887V144H311.231V131.58H312.941V135.882C312.941 136.116 312.923 136.566 312.923 136.872C313.553 135.81 314.669 135.288 315.965 135.288C318.467 135.288 320.087 137.196 320.087 139.716C320.087 142.254 318.467 144.198 315.929 144.198ZM315.605 142.722C317.315 142.722 318.323 141.408 318.323 139.698C318.323 137.988 317.315 136.692 315.605 136.692C313.895 136.692 312.869 137.988 312.869 139.698C312.869 141.408 313.895 142.722 315.605 142.722ZM321.971 144V131.58H323.681V144H321.971ZM329.861 144.198C327.323 144.198 325.577 142.434 325.577 139.716C325.577 137.016 327.539 135.288 329.915 135.288C332.291 135.288 333.965 136.98 333.965 139.374C333.965 139.698 333.911 140.13 333.911 140.13H327.323C327.413 141.822 328.493 142.848 330.077 142.848C331.679 142.848 332.705 141.984 332.903 141.858L333.623 142.848C333.515 142.938 332.417 144.198 329.861 144.198ZM332.327 138.978C332.309 138.024 331.589 136.53 329.861 136.53C328.151 136.53 327.395 137.952 327.341 138.978H332.327ZM341.858 144.198C340.958 144.198 340.4 143.856 340.04 143.316C339.68 142.776 339.608 142.11 339.608 140.76V136.854H338.348V135.468H339.608V132.912H341.336V135.468H343.388V136.854H341.336V140.724C341.336 141.444 341.336 141.948 341.552 142.29C341.696 142.578 341.948 142.722 342.434 142.722C342.938 142.722 343.316 142.524 343.316 142.524L343.424 143.91C342.974 144.108 342.452 144.198 341.858 144.198ZM348.816 144.198C346.26 144.198 344.28 142.416 344.28 139.752C344.28 137.106 346.26 135.288 348.816 135.288C351.354 135.288 353.334 137.106 353.334 139.752C353.334 142.416 351.354 144.198 348.816 144.198ZM348.816 142.722C350.526 142.722 351.588 141.39 351.588 139.698C351.588 138.024 350.526 136.692 348.816 136.692C347.088 136.692 346.026 138.024 346.026 139.698C346.026 141.39 347.088 142.722 348.816 142.722ZM362.469 144.198C360.165 144.198 358.149 142.47 358.149 139.734C358.149 136.98 360.255 135.288 362.523 135.288C364.809 135.288 365.745 136.404 365.835 136.512L365.223 137.772C364.935 137.484 364.179 136.728 362.667 136.728C361.155 136.728 359.895 137.88 359.895 139.68C359.895 141.48 361.011 142.722 362.667 142.722C364.341 142.722 365.277 141.642 365.277 141.642L365.889 142.902C365.889 142.902 364.917 144.198 362.469 144.198ZM371.228 144.198C368.672 144.198 366.692 142.416 366.692 139.752C366.692 137.106 368.672 135.288 371.228 135.288C373.766 135.288 375.746 137.106 375.746 139.752C375.746 142.416 373.766 144.198 371.228 144.198ZM371.228 142.722C372.938 142.722 374 141.39 374 139.698C374 138.024 372.938 136.692 371.228 136.692C369.5 136.692 368.438 138.024 368.438 139.698C368.438 141.39 369.5 142.722 371.228 142.722ZM377.551 144V135.45H379.279L379.261 136.908C379.729 135.9 380.827 135.288 381.925 135.288C384.355 135.288 384.985 136.89 384.985 138.942V144H383.257V139.23C383.257 137.79 383.005 136.71 381.475 136.71C379.873 136.71 379.279 138.06 379.279 139.698V144H377.551ZM387.29 144V135.45H389.018L389 136.908C389.468 135.9 390.566 135.288 391.664 135.288C394.094 135.288 394.724 136.89 394.724 138.942V144H392.996V139.23C392.996 137.79 392.744 136.71 391.214 136.71C389.612 136.71 389.018 138.06 389.018 139.698V144H387.29ZM400.736 144.198C398.198 144.198 396.452 142.434 396.452 139.716C396.452 137.016 398.414 135.288 400.79 135.288C403.166 135.288 404.84 136.98 404.84 139.374C404.84 139.698 404.786 140.13 404.786 140.13H398.198C398.288 141.822 399.368 142.848 400.952 142.848C402.554 142.848 403.58 141.984 403.778 141.858L404.498 142.848C404.39 142.938 403.292 144.198 400.736 144.198ZM403.202 138.978C403.184 138.024 402.464 136.53 400.736 136.53C399.026 136.53 398.27 137.952 398.216 138.978H403.202ZM410.387 144.198C408.083 144.198 406.067 142.47 406.067 139.734C406.067 136.98 408.173 135.288 410.441 135.288C412.727 135.288 413.663 136.404 413.753 136.512L413.141 137.772C412.853 137.484 412.097 136.728 410.585 136.728C409.073 136.728 407.813 137.88 407.813 139.68C407.813 141.48 408.929 142.722 410.585 142.722C412.259 142.722 413.195 141.642 413.195 141.642L413.807 142.902C413.807 142.902 412.835 144.198 410.387 144.198ZM417.778 144.198C416.878 144.198 416.32 143.856 415.96 143.316C415.6 142.776 415.528 142.11 415.528 140.76V136.854H414.268V135.468H415.528V132.912H417.256V135.468H419.308V136.854H417.256V140.724C417.256 141.444 417.256 141.948 417.472 142.29C417.616 142.578 417.868 142.722 418.354 142.722C418.858 142.722 419.236 142.524 419.236 142.524L419.344 143.91C418.894 144.108 418.372 144.198 417.778 144.198ZM165.286 169.474C164.332 169.474 163.666 169.168 163.666 169.168L164.008 167.764C164.008 167.764 164.476 167.962 164.908 167.962C165.268 167.962 165.646 167.998 166.024 166.954L166.438 165.82L162.964 157.432L164.764 157.45L167.356 164.092L169.876 157.432L171.658 157.45L167.536 167.494C166.942 168.97 166.24 169.474 165.286 169.474ZM176.709 166.198C174.153 166.198 172.173 164.416 172.173 161.752C172.173 159.106 174.153 157.288 176.709 157.288C179.247 157.288 181.227 159.106 181.227 161.752C181.227 164.416 179.247 166.198 176.709 166.198ZM176.709 164.722C178.419 164.722 179.481 163.39 179.481 161.698C179.481 160.024 178.419 158.692 176.709 158.692C174.981 158.692 173.919 160.024 173.919 161.698C173.919 163.39 174.981 164.722 176.709 164.722ZM185.966 166.198C184.742 166.198 184.04 165.784 183.59 165.208C183.158 164.632 182.96 163.786 182.96 162.562V157.432H184.67V162.49C184.67 163.66 184.922 164.758 186.452 164.758C187.964 164.758 188.576 163.462 188.576 162.022V157.432H190.304V166H188.63L188.612 164.776C188.144 165.604 187.172 166.198 185.966 166.198ZM198.086 166L195.26 157.45H197.006L198.986 163.912L201.236 157.432H202.622L204.872 163.912L206.852 157.45H208.598L205.772 166H204.188L201.938 159.61L199.67 166H198.086ZM210.033 166V157.45H211.761V166H210.033ZM210.897 155.704C210.231 155.704 209.763 155.254 209.763 154.642C209.763 154.03 210.231 153.58 210.897 153.58C211.545 153.58 212.013 154.03 212.013 154.642C212.013 155.254 211.545 155.704 210.897 155.704ZM216.807 166.198C215.907 166.198 215.349 165.856 214.989 165.316C214.629 164.776 214.557 164.11 214.557 162.76V158.854H213.297V157.468H214.557V154.912H216.285V157.468H218.337V158.854H216.285V162.724C216.285 163.444 216.285 163.948 216.501 164.29C216.645 164.578 216.897 164.722 217.383 164.722C217.887 164.722 218.265 164.524 218.265 164.524L218.373 165.91C217.923 166.108 217.401 166.198 216.807 166.198ZM219.895 166V153.58H221.605V158.8H221.641C222.091 157.954 223.027 157.288 224.269 157.288C226.735 157.288 227.329 158.872 227.329 160.906V166H225.601V161.158C225.601 159.934 225.403 158.71 223.837 158.71C222.271 158.71 221.605 160.06 221.605 161.77V166H219.895ZM235.484 166.198C233.9 166.198 232.532 165.208 232.532 163.552C232.532 161.878 233.9 161.032 235.88 160.942L238.166 160.852V160.51C238.166 159.214 237.284 158.566 236.042 158.566C234.8 158.566 233.756 159.124 233.468 159.304L232.946 158.152C233.576 157.792 234.728 157.288 236.15 157.288C237.572 157.288 238.4 157.684 238.976 158.26C239.552 158.854 239.894 159.574 239.894 161.032V166H238.22L238.202 164.92C237.86 165.28 237.05 166.198 235.484 166.198ZM236.006 164.974C237.122 164.974 237.86 164.218 238.184 163.732V161.896L236.186 162.022C234.8 162.094 234.242 162.688 234.242 163.498C234.242 164.308 234.872 164.974 236.006 164.974ZM242.112 166V157.45H243.84L243.822 158.908C244.29 157.9 245.388 157.288 246.486 157.288C248.916 157.288 249.546 158.89 249.546 160.942V166H247.818V161.23C247.818 159.79 247.566 158.71 246.036 158.71C244.434 158.71 243.84 160.06 243.84 161.698V166H242.112ZM252.737 169.474C251.783 169.474 251.117 169.168 251.117 169.168L251.459 167.764C251.459 167.764 251.927 167.962 252.359 167.962C252.719 167.962 253.097 167.998 253.475 166.954L253.889 165.82L250.415 157.432L252.215 157.45L254.807 164.092L257.327 157.432L259.109 157.45L254.987 167.494C254.393 168.97 253.691 169.474 252.737 169.474ZM263.91 169.348V157.45H265.566V158.8C266.322 157.792 267.384 157.288 268.644 157.288C271.164 157.288 272.766 159.178 272.766 161.716C272.766 164.254 271.146 166.198 268.608 166.198C267.258 166.198 266.268 165.622 265.656 164.668L265.638 166.396V169.348H263.91ZM268.284 164.722C269.994 164.722 271.002 163.408 271.002 161.698C271.002 159.988 269.994 158.692 268.284 158.692C266.574 158.692 265.566 159.988 265.566 161.698C265.566 163.408 266.574 164.722 268.284 164.722ZM274.561 166V157.45H276.289L276.271 158.764H276.325C276.739 157.792 277.513 157.288 278.431 157.288C279.007 157.288 279.331 157.432 279.331 157.432L279.223 159.034H279.151C278.989 158.962 278.683 158.854 278.215 158.854C277.459 158.854 276.991 159.34 276.811 159.574C276.649 159.808 276.289 160.474 276.289 161.734V166H274.561ZM284.462 166.198C281.906 166.198 279.926 164.416 279.926 161.752C279.926 159.106 281.906 157.288 284.462 157.288C287 157.288 288.98 159.106 288.98 161.752C288.98 164.416 287 166.198 284.462 166.198ZM284.462 164.722C286.172 164.722 287.234 163.39 287.234 161.698C287.234 160.024 286.172 158.692 284.462 158.692C282.734 158.692 281.672 160.024 281.672 161.698C281.672 163.39 282.734 164.722 284.462 164.722ZM293.288 166.198V166.216C291.848 166.216 290.678 165.622 289.958 164.686L290.786 163.678C291.506 164.434 292.514 164.902 293.306 164.902C294.098 164.902 294.944 164.614 294.944 163.678C294.944 162.832 293.936 162.562 293.018 162.256L292.64 162.13C291.488 161.752 290.498 161.122 290.498 159.754C290.498 158.17 291.866 157.306 293.378 157.306C294.89 157.306 295.754 157.846 296.294 158.422L295.574 159.484C295.07 158.962 294.242 158.566 293.414 158.566C292.586 158.566 292.046 158.926 292.046 159.628C292.046 160.33 292.874 160.636 293.72 160.906L294.872 161.32C295.826 161.716 296.546 162.382 296.546 163.498C296.546 165.352 295.016 166.198 293.288 166.198ZM299.769 166.18C299.067 166.18 298.563 165.748 298.563 165.064C298.563 164.362 299.067 163.93 299.769 163.93C300.453 163.93 300.957 164.362 300.957 165.064C300.957 165.748 300.453 166.18 299.769 166.18ZM309.687 166V155.038H306.177V153.58H314.925V155.038H311.433V166H309.687ZM315.448 166V157.45H317.176L317.158 158.764H317.212C317.626 157.792 318.4 157.288 319.318 157.288C319.894 157.288 320.218 157.432 320.218 157.432L320.11 159.034H320.038C319.876 158.962 319.57 158.854 319.102 158.854C318.346 158.854 317.878 159.34 317.698 159.574C317.536 159.808 317.176 160.474 317.176 161.734V166H315.448ZM322.575 169.474C321.621 169.474 320.955 169.168 320.955 169.168L321.297 167.764C321.297 167.764 321.765 167.962 322.197 167.962C322.557 167.962 322.935 167.998 323.313 166.954L323.727 165.82L320.253 157.432L322.053 157.45L324.645 164.092L327.165 157.432L328.947 157.45L324.825 167.494C324.231 168.97 323.529 169.474 322.575 169.474ZM335.908 166.198C334.324 166.198 332.956 165.208 332.956 163.552C332.956 161.878 334.324 161.032 336.304 160.942L338.59 160.852V160.51C338.59 159.214 337.708 158.566 336.466 158.566C335.224 158.566 334.18 159.124 333.892 159.304L333.37 158.152C334 157.792 335.152 157.288 336.574 157.288C337.996 157.288 338.824 157.684 339.4 158.26C339.976 158.854 340.318 159.574 340.318 161.032V166H338.644L338.626 164.92C338.284 165.28 337.474 166.198 335.908 166.198ZM336.43 164.974C337.546 164.974 338.284 164.218 338.608 163.732V161.896L336.61 162.022C335.224 162.094 334.666 162.688 334.666 163.498C334.666 164.308 335.296 164.974 336.43 164.974ZM346.064 165.892C343.886 165.892 341.96 164.29 341.96 161.68C341.96 158.836 343.886 157.288 346.082 157.288C347.468 157.288 348.476 157.9 349.07 158.782H349.106V157.45H350.816V164.2C350.816 166.09 350.51 167.134 349.88 167.89C349.25 168.664 348.188 169.528 346.064 169.528C343.958 169.528 342.5 168.43 342.248 168.25L343.058 167.044C343.508 167.44 344.84 168.124 346.118 168.124C347.396 168.124 348.116 167.62 348.458 167.188C348.8 166.774 349.106 165.964 349.106 164.794V164.326C348.494 165.226 347.522 165.892 346.064 165.892ZM346.442 164.488C348.152 164.488 349.16 163.21 349.16 161.626C349.16 159.916 348.152 158.674 346.442 158.674C344.732 158.674 343.724 159.934 343.724 161.626C343.724 163.21 344.732 164.488 346.442 164.488ZM355.438 166.198C353.854 166.198 352.486 165.208 352.486 163.552C352.486 161.878 353.854 161.032 355.834 160.942L358.12 160.852V160.51C358.12 159.214 357.238 158.566 355.996 158.566C354.754 158.566 353.71 159.124 353.422 159.304L352.9 158.152C353.53 157.792 354.682 157.288 356.104 157.288C357.526 157.288 358.354 157.684 358.93 158.26C359.506 158.854 359.848 159.574 359.848 161.032V166H358.174L358.156 164.92C357.814 165.28 357.004 166.198 355.438 166.198ZM355.96 164.974C357.076 164.974 357.814 164.218 358.138 163.732V161.896L356.14 162.022C354.754 162.094 354.196 162.688 354.196 163.498C354.196 164.308 354.826 164.974 355.96 164.974ZM362.137 166V157.45H363.865V166H362.137ZM363.001 155.704C362.335 155.704 361.867 155.254 361.867 154.642C361.867 154.03 362.335 153.58 363.001 153.58C363.649 153.58 364.117 154.03 364.117 154.642C364.117 155.254 363.649 155.704 363.001 155.704ZM366.319 166V157.45H368.047L368.029 158.908C368.497 157.9 369.595 157.288 370.693 157.288C373.123 157.288 373.753 158.89 373.753 160.942V166H372.025V161.23C372.025 159.79 371.773 158.71 370.243 158.71C368.641 158.71 368.047 160.06 368.047 161.698V166H366.319ZM377.587 166.18C376.885 166.18 376.381 165.748 376.381 165.064C376.381 164.362 376.885 163.93 377.587 163.93C378.271 163.93 378.775 164.362 378.775 165.064C378.775 165.748 378.271 166.18 377.587 166.18Z" fill="#1F2426"/>
<rect x="521" y="64" width="425" height="858" rx="64" fill="white"/>
<mask id="mask1_767_54208" style="mask-type:alpha" maskUnits="userSpaceOnUse" x="546" y="87" width="375" height="812">
<rect x="546" y="87" width="375" height="812" rx="48" fill="#D9D9D9"/>
</mask>
<g mask="url(#mask1_767_54208)">
<rect x="546" y="87" width="375" height="812" fill="#F4F5F6"/>
<rect x="574" y="236" width="194" height="24" rx="8" fill="#656D76"/>
<rect x="574" y="276" width="302" height="24" rx="8" fill="#B0B7BF"/>
<rect x="574" y="308" width="260" height="24" rx="8" fill="#B0B7BF"/>
<rect x="574" y="340" width="319" height="24" rx="8" fill="#B0B7BF"/>
<rect x="574" y="372" width="275" height="24" rx="8" fill="#B0B7BF"/>
<rect x="574" y="404" width="97" height="24" rx="8" fill="#B0B7BF"/>
<rect x="574" y="476" width="194" height="24" rx="8" fill="#656D76"/>
<rect x="574" y="516" width="260" height="24" rx="8" fill="#B0B7BF"/>
<rect x="574" y="548" width="226" height="24" rx="8" fill="#B0B7BF"/>
<rect x="574" y="580" width="319" height="24" rx="8" fill="#B0B7BF"/>
<rect x="574" y="612" width="152" height="24" rx="8" fill="#B0B7BF"/>
<rect x="574" y="684" width="194" height="24" rx="8" fill="#656D76"/>
<rect x="574" y="724" width="302" height="24" rx="8" fill="#B0B7BF"/>
<rect x="574" y="756" width="226" height="24" rx="8" fill="#B0B7BF"/>
<rect x="574" y="788" width="260" height="24" rx="8" fill="#B0B7BF"/>
<rect x="574" y="820" width="196" height="24" rx="8" fill="#B0B7BF"/>
</g>
<rect x="572.5" y="111.5" width="322" height="76" rx="7.5" fill="#EAF8EE"/>
<rect x="572.5" y="111.5" width="322" height="76" rx="7.5" stroke="#1B8533"/>
<path fill-rule="evenodd" clip-rule="evenodd" d="M600 160.5C606.075 160.5 611 155.575 611 149.5C611 143.425 606.075 138.5 600 138.5C593.925 138.5 589 143.425 589 149.5C589 155.575 593.925 160.5 600 160.5ZM595.401 149.058L598.23 151.887L604.594 145.523C604.984 145.132 605.617 145.132 606.008 145.523C606.398 145.913 606.398 146.546 606.008 146.937L598.937 154.008C598.546 154.398 597.913 154.398 597.523 154.008L593.987 150.472C593.597 150.082 593.597 149.449 593.987 149.058C594.378 148.668 595.011 148.668 595.401 149.058Z" fill="#1B8533"/>
<path d="M624.626 144.216C622.448 144.216 621.206 142.812 620.612 142.128L621.638 140.958C622.268 141.804 623.438 142.74 624.788 142.74C626.138 142.74 627.218 141.966 627.218 140.652C627.218 139.41 626.12 139.014 625.202 138.618L623.384 137.844C622.034 137.286 621.17 136.242 621.17 134.73C621.17 132.534 623.168 131.418 625.166 131.418C627.2 131.418 628.388 132.66 628.73 133.02L627.812 134.208C627.2 133.56 626.3 132.876 625.076 132.876C623.852 132.876 622.916 133.452 622.916 134.604C622.916 135.684 623.618 136.134 624.518 136.494L626.714 137.394C628.064 137.952 628.964 139.158 628.964 140.544C628.964 142.956 626.804 144.216 624.626 144.216ZM633.913 144.198C632.689 144.198 631.987 143.784 631.537 143.208C631.105 142.632 630.907 141.786 630.907 140.562V135.432H632.617V140.49C632.617 141.66 632.869 142.758 634.399 142.758C635.911 142.758 636.523 141.462 636.523 140.022V135.432H638.251V144H636.577L636.559 142.776C636.091 143.604 635.119 144.198 633.913 144.198ZM644.373 144.198C642.069 144.198 640.053 142.47 640.053 139.734C640.053 136.98 642.159 135.288 644.427 135.288C646.713 135.288 647.649 136.404 647.739 136.512L647.127 137.772C646.839 137.484 646.083 136.728 644.571 136.728C643.059 136.728 641.799 137.88 641.799 139.68C641.799 141.48 642.915 142.722 644.571 142.722C646.245 142.722 647.181 141.642 647.181 141.642L647.793 142.902C647.793 142.902 646.821 144.198 644.373 144.198ZM652.916 144.198C650.612 144.198 648.596 142.47 648.596 139.734C648.596 136.98 650.702 135.288 652.97 135.288C655.256 135.288 656.192 136.404 656.282 136.512L655.67 137.772C655.382 137.484 654.626 136.728 653.114 136.728C651.602 136.728 650.342 137.88 650.342 139.68C650.342 141.48 651.458 142.722 653.114 142.722C654.788 142.722 655.724 141.642 655.724 141.642L656.336 142.902C656.336 142.902 655.364 144.198 652.916 144.198ZM661.423 144.198C658.885 144.198 657.139 142.434 657.139 139.716C657.139 137.016 659.101 135.288 661.477 135.288C663.853 135.288 665.527 136.98 665.527 139.374C665.527 139.698 665.473 140.13 665.473 140.13H658.885C658.975 141.822 660.055 142.848 661.639 142.848C663.241 142.848 664.267 141.984 664.465 141.858L665.185 142.848C665.077 142.938 663.979 144.198 661.423 144.198ZM663.889 138.978C663.871 138.024 663.151 136.53 661.423 136.53C659.713 136.53 658.957 137.952 658.903 138.978H663.889ZM669.745 144.198V144.216C668.305 144.216 667.135 143.622 666.415 142.686L667.243 141.678C667.963 142.434 668.971 142.902 669.763 142.902C670.555 142.902 671.401 142.614 671.401 141.678C671.401 140.832 670.393 140.562 669.475 140.256L669.097 140.13C667.945 139.752 666.955 139.122 666.955 137.754C666.955 136.17 668.323 135.306 669.835 135.306C671.347 135.306 672.211 135.846 672.751 136.422L672.031 137.484C671.527 136.962 670.699 136.566 669.871 136.566C669.043 136.566 668.503 136.926 668.503 137.628C668.503 138.33 669.331 138.636 670.177 138.906L671.329 139.32C672.283 139.716 673.003 140.382 673.003 141.498C673.003 143.352 671.473 144.198 669.745 144.198ZM677.022 144.198V144.216C675.582 144.216 674.412 143.622 673.692 142.686L674.52 141.678C675.24 142.434 676.248 142.902 677.04 142.902C677.832 142.902 678.678 142.614 678.678 141.678C678.678 140.832 677.67 140.562 676.752 140.256L676.374 140.13C675.222 139.752 674.232 139.122 674.232 137.754C674.232 136.17 675.6 135.306 677.112 135.306C678.624 135.306 679.488 135.846 680.028 136.422L679.308 137.484C678.804 136.962 677.976 136.566 677.148 136.566C676.32 136.566 675.78 136.926 675.78 137.628C675.78 138.33 676.608 138.636 677.454 138.906L678.606 139.32C679.56 139.716 680.28 140.382 680.28 141.498C680.28 143.352 678.75 144.198 677.022 144.198ZM682.747 140.688L682.603 131.58H684.403L684.241 140.688H682.747ZM683.503 144.18C682.801 144.18 682.297 143.748 682.297 143.064C682.297 142.362 682.801 141.93 683.503 141.93C684.187 141.93 684.691 142.362 684.691 143.064C684.691 143.748 684.187 144.18 683.503 144.18ZM693.421 144V133.038H689.911V131.58H698.659V133.038H695.167V144H693.421ZM700.081 144V131.58H701.791V136.8H701.827C702.277 135.954 703.213 135.288 704.455 135.288C706.921 135.288 707.515 136.872 707.515 138.906V144H705.787V139.158C705.787 137.934 705.589 136.71 704.023 136.71C702.457 136.71 701.791 138.06 701.791 139.77V144H700.081ZM709.924 144V135.45H711.652V144H709.924ZM710.788 133.704C710.122 133.704 709.654 133.254 709.654 132.642C709.654 132.03 710.122 131.58 710.788 131.58C711.436 131.58 711.904 132.03 711.904 132.642C711.904 133.254 711.436 133.704 710.788 133.704ZM716.608 144.198V144.216C715.168 144.216 713.998 143.622 713.278 142.686L714.106 141.678C714.826 142.434 715.834 142.902 716.626 142.902C717.418 142.902 718.264 142.614 718.264 141.678C718.264 140.832 717.256 140.562 716.338 140.256L715.96 140.13C714.808 139.752 713.818 139.122 713.818 137.754C713.818 136.17 715.186 135.306 716.698 135.306C718.21 135.306 719.074 135.846 719.614 136.422L718.894 137.484C718.39 136.962 717.562 136.566 716.734 136.566C715.906 136.566 715.366 136.926 715.366 137.628C715.366 138.33 716.194 138.636 717.04 138.906L718.192 139.32C719.146 139.716 719.866 140.382 719.866 141.498C719.866 143.352 718.336 144.198 716.608 144.198ZM725.235 144V131.58H726.945V144H725.235ZM733.125 144.198C730.587 144.198 728.841 142.434 728.841 139.716C728.841 137.016 730.803 135.288 733.179 135.288C735.555 135.288 737.229 136.98 737.229 139.374C737.229 139.698 737.175 140.13 737.175 140.13H730.587C730.677 141.822 731.757 142.848 733.341 142.848C734.943 142.848 735.969 141.984 736.167 141.858L736.887 142.848C736.779 142.938 735.681 144.198 733.125 144.198ZM735.591 138.978C735.573 138.024 734.853 136.53 733.125 136.53C731.415 136.53 730.659 137.952 730.605 138.978H735.591ZM741.352 144.198C739.768 144.198 738.4 143.208 738.4 141.552C738.4 139.878 739.768 139.032 741.748 138.942L744.034 138.852V138.51C744.034 137.214 743.152 136.566 741.91 136.566C740.668 136.566 739.624 137.124 739.336 137.304L738.814 136.152C739.444 135.792 740.596 135.288 742.018 135.288C743.44 135.288 744.268 135.684 744.844 136.26C745.42 136.854 745.762 137.574 745.762 139.032V144H744.088L744.07 142.92C743.728 143.28 742.918 144.198 741.352 144.198ZM741.874 142.974C742.99 142.974 743.728 142.218 744.052 141.732V139.896L742.054 140.022C740.668 140.094 740.11 140.688 740.11 141.498C740.11 142.308 740.74 142.974 741.874 142.974ZM751.561 144.198C749.023 144.198 747.403 142.254 747.403 139.716C747.403 137.196 749.023 135.288 751.525 135.288C752.911 135.288 753.919 135.9 754.513 136.782H754.549V131.58H756.259V144H754.603V142.632C753.901 143.676 752.803 144.198 751.561 144.198ZM751.885 142.722C753.595 142.722 754.603 141.408 754.603 139.698C754.603 137.988 753.595 136.692 751.885 136.692C750.175 136.692 749.167 137.988 749.167 139.698C749.167 141.408 750.175 142.722 751.885 142.722ZM762.395 144V131.58H764.105V136.8H764.141C764.591 135.954 765.527 135.288 766.769 135.288C769.235 135.288 769.829 136.872 769.829 138.906V144H768.101V139.158C768.101 137.934 767.903 136.71 766.337 136.71C764.771 136.71 764.105 138.06 764.105 139.77V144H762.395ZM774.399 144.198C772.815 144.198 771.447 143.208 771.447 141.552C771.447 139.878 772.815 139.032 774.795 138.942L777.081 138.852V138.51C777.081 137.214 776.199 136.566 774.957 136.566C773.715 136.566 772.671 137.124 772.383 137.304L771.861 136.152C772.491 135.792 773.643 135.288 775.065 135.288C776.487 135.288 777.315 135.684 777.891 136.26C778.467 136.854 778.809 137.574 778.809 139.032V144H777.135L777.117 142.92C776.775 143.28 775.965 144.198 774.399 144.198ZM774.921 142.974C776.037 142.974 776.775 142.218 777.099 141.732V139.896L775.101 140.022C773.715 140.094 773.157 140.688 773.157 141.498C773.157 142.308 773.787 142.974 774.921 142.974ZM783.528 144.198V144.216C782.088 144.216 780.918 143.622 780.198 142.686L781.026 141.678C781.746 142.434 782.754 142.902 783.546 142.902C784.338 142.902 785.184 142.614 785.184 141.678C785.184 140.832 784.176 140.562 783.258 140.256L782.88 140.13C781.728 139.752 780.738 139.122 780.738 137.754C780.738 136.17 782.106 135.306 783.618 135.306C785.13 135.306 785.994 135.846 786.534 136.422L785.814 137.484C785.31 136.962 784.482 136.566 783.654 136.566C782.826 136.566 782.286 136.926 782.286 137.628C782.286 138.33 783.114 138.636 783.96 138.906L785.112 139.32C786.066 139.716 786.786 140.382 786.786 141.498C786.786 143.352 785.256 144.198 783.528 144.198ZM796.853 144.198C795.611 144.198 794.549 143.694 793.847 142.65H793.811V144H792.155V131.58H793.865V135.882C793.865 136.116 793.847 136.566 793.847 136.872C794.477 135.81 795.593 135.288 796.889 135.288C799.391 135.288 801.011 137.196 801.011 139.716C801.011 142.254 799.391 144.198 796.853 144.198ZM796.529 142.722C798.239 142.722 799.247 141.408 799.247 139.698C799.247 137.988 798.239 136.692 796.529 136.692C794.819 136.692 793.793 137.988 793.793 139.698C793.793 141.408 794.819 142.722 796.529 142.722ZM806.513 144.198C803.975 144.198 802.229 142.434 802.229 139.716C802.229 137.016 804.191 135.288 806.567 135.288C808.943 135.288 810.617 136.98 810.617 139.374C810.617 139.698 810.563 140.13 810.563 140.13H803.975C804.065 141.822 805.145 142.848 806.729 142.848C808.331 142.848 809.357 141.984 809.555 141.858L810.275 142.848C810.167 142.938 809.069 144.198 806.513 144.198ZM808.979 138.978C808.961 138.024 808.241 136.53 806.513 136.53C804.803 136.53 804.047 137.952 803.993 138.978H808.979ZM816.128 144.198C813.59 144.198 811.844 142.434 811.844 139.716C811.844 137.016 813.806 135.288 816.182 135.288C818.558 135.288 820.232 136.98 820.232 139.374C820.232 139.698 820.178 140.13 820.178 140.13H813.59C813.68 141.822 814.76 142.848 816.344 142.848C817.946 142.848 818.972 141.984 819.17 141.858L819.89 142.848C819.782 142.938 818.684 144.198 816.128 144.198ZM818.594 138.978C818.576 138.024 817.856 136.53 816.128 136.53C814.418 136.53 813.662 137.952 813.608 138.978H818.594ZM821.948 144V135.45H823.676L823.658 136.908C824.126 135.9 825.224 135.288 826.322 135.288C828.752 135.288 829.382 136.89 829.382 138.942V144H827.654V139.23C827.654 137.79 827.402 136.71 825.872 136.71C824.27 136.71 823.676 138.06 823.676 139.698V144H821.948ZM624.122 166.198C622.898 166.198 622.196 165.784 621.746 165.208C621.314 164.632 621.116 163.786 621.116 162.562V157.432H622.826V162.49C622.826 163.66 623.078 164.758 624.608 164.758C626.12 164.758 626.732 163.462 626.732 162.022V157.432H628.46V166H626.786L626.768 164.776C626.3 165.604 625.328 166.198 624.122 166.198ZM630.91 169.348V157.45H632.566V158.8C633.322 157.792 634.384 157.288 635.644 157.288C638.164 157.288 639.766 159.178 639.766 161.716C639.766 164.254 638.146 166.198 635.608 166.198C634.258 166.198 633.268 165.622 632.656 164.668L632.638 166.396V169.348H630.91ZM635.284 164.722C636.994 164.722 638.002 163.408 638.002 161.698C638.002 159.988 636.994 158.692 635.284 158.692C633.574 158.692 632.566 159.988 632.566 161.698C632.566 163.408 633.574 164.722 635.284 164.722ZM645.143 166.198C642.605 166.198 640.985 164.254 640.985 161.716C640.985 159.196 642.605 157.288 645.107 157.288C646.493 157.288 647.501 157.9 648.095 158.782H648.131V153.58H649.841V166H648.185V164.632C647.483 165.676 646.385 166.198 645.143 166.198ZM645.467 164.722C647.177 164.722 648.185 163.408 648.185 161.698C648.185 159.988 647.177 158.692 645.467 158.692C643.757 158.692 642.749 159.988 642.749 161.698C642.749 163.408 643.757 164.722 645.467 164.722ZM654.533 166.198C652.949 166.198 651.581 165.208 651.581 163.552C651.581 161.878 652.949 161.032 654.929 160.942L657.215 160.852V160.51C657.215 159.214 656.333 158.566 655.091 158.566C653.849 158.566 652.805 159.124 652.517 159.304L651.995 158.152C652.625 157.792 653.777 157.288 655.199 157.288C656.621 157.288 657.449 157.684 658.025 158.26C658.601 158.854 658.943 159.574 658.943 161.032V166H657.269L657.251 164.92C656.909 165.28 656.099 166.198 654.533 166.198ZM655.055 164.974C656.171 164.974 656.909 164.218 657.233 163.732V161.896L655.235 162.022C653.849 162.094 653.291 162.688 653.291 163.498C653.291 164.308 653.921 164.974 655.055 164.974ZM663.753 166.198C662.853 166.198 662.295 165.856 661.935 165.316C661.575 164.776 661.503 164.11 661.503 162.76V158.854H660.243V157.468H661.503V154.912H663.231V157.468H665.283V158.854H663.231V162.724C663.231 163.444 663.231 163.948 663.447 164.29C663.591 164.578 663.843 164.722 664.329 164.722C664.833 164.722 665.211 164.524 665.211 164.524L665.319 165.91C664.869 166.108 664.347 166.198 663.753 166.198ZM670.459 166.198C667.921 166.198 666.175 164.434 666.175 161.716C666.175 159.016 668.137 157.288 670.513 157.288C672.889 157.288 674.562 158.98 674.562 161.374C674.562 161.698 674.509 162.13 674.509 162.13H667.921C668.011 163.822 669.091 164.848 670.675 164.848C672.277 164.848 673.303 163.984 673.501 163.858L674.221 164.848C674.113 164.938 673.015 166.198 670.459 166.198ZM672.925 160.978C672.907 160.024 672.187 158.53 670.459 158.53C668.749 158.53 667.993 159.952 667.938 160.978H672.925ZM679.948 166.198C677.41 166.198 675.79 164.254 675.79 161.716C675.79 159.196 677.41 157.288 679.912 157.288C681.298 157.288 682.306 157.9 682.9 158.782H682.936V153.58H684.646V166H682.99V164.632C682.288 165.676 681.19 166.198 679.948 166.198ZM680.272 164.722C681.982 164.722 682.99 163.408 682.99 161.698C682.99 159.988 681.982 158.692 680.272 158.692C678.562 158.692 677.554 159.988 677.554 161.698C677.554 163.408 678.562 164.722 680.272 164.722ZM688.636 166.18C687.934 166.18 687.43 165.748 687.43 165.064C687.43 164.362 687.934 163.93 688.636 163.93C689.32 163.93 689.824 164.362 689.824 165.064C689.824 165.748 689.32 166.18 688.636 166.18Z" fill="#1F2426"/>
<path fill-rule="evenodd" clip-rule="evenodd" d="M866 148.558L872.195 142.362C872.455 142.102 872.878 142.102 873.138 142.362C873.398 142.623 873.398 143.045 873.138 143.305L866.943 149.5L873.138 155.696C873.398 155.956 873.398 156.378 873.138 156.638C872.878 156.899 872.455 156.899 872.195 156.638L866 150.443L859.805 156.638C859.544 156.899 859.122 156.899 858.862 156.638C858.601 156.378 858.601 155.956 858.862 155.696L865.057 149.5L858.862 143.305C858.601 143.045 858.601 142.623 858.862 142.362C859.122 142.102 859.544 142.102 859.805 142.362L866 148.558Z" fill="#1F2426"/>
</svg>
