<svg width="32" height="40" viewBox="0 0 32 40" fill="none" xmlns="http://www.w3.org/2000/svg">
<circle cx="16" cy="20" r="16" fill="white"/>
<rect y="4" width="32" height="32" rx="16" fill="#D2D6DA"/>
<path d="M26 14.6293V24.994C26 26.7413 25.1179 27.615 23.3367 27.615H8.66328C6.89059 27.615 6 26.7413 6 24.994V14.6293C6 12.8821 6.89059 12 8.66328 12H23.3367C25.1179 12 26 12.8821 26 14.6293ZM13.7778 18.989C13.464 18.989 13.218 19.2434 13.218 19.5573C13.218 19.8711 13.464 20.1255 13.7778 20.1255H17.1111C17.4335 20.1255 17.6794 19.8711 17.6794 19.5573C17.6794 19.2434 17.4335 18.989 17.1111 18.989H13.7778ZM9.52842 16.0458L11.6319 17.3096L9.52842 18.5903C8.8414 18.9975 9.41815 20.0492 10.1815 19.5742L12.6921 17.9966C13.1925 17.6828 13.1671 16.9364 12.6921 16.631L10.1815 15.0619C9.41815 14.5869 8.83291 15.6217 9.52842 16.0458Z" fill="white"/>
</svg>
