<svg width="32" height="40" viewBox="0 0 32 40" fill="none" xmlns="http://www.w3.org/2000/svg">
<circle cx="16" cy="20" r="16" fill="white"/>
<path d="M32 20C32 28.7373 24.7528 36 16 36C7.26275 36 0 28.7373 0 20C0 11.2471 7.24706 4 15.9843 4C24.7373 4 32 11.2471 32 20ZM7.60785 21.2078V27.0274C7.60785 28.0313 8.10981 28.4236 8.98822 28.4236H14.7922C15.451 28.4236 15.9686 27.8901 15.9686 27.2314C15.9686 26.5726 15.451 26.0548 14.7922 26.0548H13.9765L11.4353 26.2117L15.1686 22.651C15.6549 22.1803 15.6706 21.349 15.1843 20.8627C14.698 20.3608 13.8823 20.3451 13.3961 20.8784L9.80391 24.6431L9.97646 22.0235V21.2078C9.97646 20.549 9.44314 20.0314 8.78432 20.0314C8.12548 20.0314 7.60785 20.549 7.60785 21.2078ZM17.2235 11.6078C16.5647 11.6078 16.0314 12.1412 16.0314 12.8C16.0314 13.4588 16.5647 13.9765 17.2235 13.9765H18.0392L20.5803 13.8196L16.8314 17.3804C16.3451 17.851 16.3294 18.6823 16.8157 19.1686C17.3176 19.6706 18.1177 19.6863 18.6196 19.1529L22.196 15.3882L22.0391 18.0078V18.8235C22.0391 19.4823 22.5569 20 23.2156 20C23.8746 20 24.4079 19.4823 24.4079 18.8235V13.0039C24.4079 12 23.8901 11.6078 23.0118 11.6078H17.2235Z" fill="#D2D6DA"/>
</svg>
