<svg width="32" height="40" viewBox="0 0 32 40" fill="none" xmlns="http://www.w3.org/2000/svg">
<circle cx="16" cy="20" r="16" fill="white"/>
<path d="M32 20C32 28.7529 24.7528 36 16 36C7.26275 36 0 28.7529 0 20C0 11.2627 7.24706 4 15.9843 4C24.7373 4 32 11.2627 32 20ZM9.66273 26.4157C9.33332 26.5569 9.1294 26.8705 9.1294 27.3097V28.9412C9.1294 29.5373 9.49018 29.9137 10.102 29.9137H10.2902C10.8863 29.9137 11.2784 29.5373 11.2784 28.9412V27.3097C11.2784 26.8862 11.0588 26.5724 10.7451 26.4313V25.8666C10.3216 25.6313 9.97646 25.349 9.66273 25.0352V26.4157ZM18.447 22.5882C17.5529 22.996 16.7372 23.2 15.9843 23.1843C15.2314 23.2 14.4157 22.996 13.5216 22.5882L10.7451 21.3019V25.8666C12 26.6353 13.8039 27.0745 15.9843 27.0745C20.4705 27.0745 23.3097 25.1607 23.3097 22.9019V20.3451L18.447 22.5882ZM8.65881 22.9019C8.65881 23.5609 9.0196 24.3451 9.66273 25.0352V20.8157L8.65881 20.3451V22.9019ZM13.9608 12.8314L6.54117 16.2196C6.0549 16.4392 5.8196 16.847 5.8196 17.2078C5.8196 17.6 6.0549 17.9765 6.54117 18.1961L9.63136 19.6078L14.4 17.3961C14.3686 17.349 14.3529 17.2706 14.3529 17.2078C14.3529 16.6902 15.2 16.3451 16.0157 16.3451C16.847 16.3451 17.6627 16.6902 17.6627 17.2078C17.6627 17.7412 16.847 18.1176 16.0157 18.1176C15.7647 18.1176 15.5137 18.0863 15.2941 18.0235L10.7765 20.1412L13.9608 21.6157C14.7451 21.9608 15.3568 22.1177 15.9843 22.102C16.6118 22.1177 17.2392 21.9608 18.0078 21.6157L25.4432 18.1961C25.9294 17.9765 26.1491 17.6 26.1491 17.2078C26.1491 16.847 25.9294 16.4392 25.4432 16.2196L18.0078 12.8314C17.2392 12.4863 16.6118 12.3137 15.9843 12.3294C15.3568 12.3137 14.7451 12.4863 13.9608 12.8314Z" fill="#D2D6DA"/>
</svg>
