<svg width="32" height="40" viewBox="0 0 32 40" fill="none" xmlns="http://www.w3.org/2000/svg">
<circle cx="16" cy="20" r="16" fill="white"/>
<path d="M32 20C32 28.7373 24.7528 36 16 36C7.26275 36 0 28.7373 0 20C0 11.2471 7.24706 4 15.9843 4C24.7373 4 32 11.2471 32 20ZM16 15.3098C15.1843 13.8353 13.851 12.847 12.1098 12.847C9.3647 12.847 7.38823 14.9176 7.38823 17.7882C7.38823 22.0235 11.8745 25.9451 15.1843 28.047C15.4667 28.2196 15.8274 28.4393 16.0314 28.4393C16.2353 28.4393 16.549 28.2353 16.8 28.047C20.0941 25.898 24.6117 22.0235 24.6117 17.7882C24.6117 14.9176 22.6195 12.847 19.8901 12.847C18.1646 12.847 16.8 13.8353 16 15.3098Z" fill="#EF3054"/>
</svg>
