<svg width="32" height="40" viewBox="0 0 32 40" fill="none" xmlns="http://www.w3.org/2000/svg">
<circle cx="16" cy="20" r="16" fill="white"/>
<path d="M32 20C32 28.7529 24.7528 36 16 36C7.26275 36 0 28.7529 0 20C0 11.2627 7.24706 4 15.9843 4C24.7373 4 32 11.2627 32 20ZM18.0235 11.3882C17.4118 11.3882 17.1137 11.7176 17.1137 12.3137V27.0117C17.1137 27.5921 17.4118 27.9215 18.0235 27.9215H19.8589C20.4548 27.9215 20.7843 27.5921 20.7843 27.0117V18.1804L22.651 27.2157C22.7607 27.7804 23.153 28.0627 23.7177 27.9215L24.894 27.6392C25.4744 27.5137 25.7255 27.1216 25.6313 26.5412L23.0902 14.3372C22.9804 13.7569 22.6038 13.4588 22.0234 13.6L20.7843 13.9137V12.3137C20.7843 11.7176 20.4548 11.3882 19.8589 11.3882H18.0235ZM7.73333 13.4745C7.12156 13.4745 6.77647 13.7882 6.77647 14.3686V27.0117C6.77647 27.5921 7.12156 27.9215 7.73333 27.9215H9.1294C9.72549 27.9215 10.0549 27.5921 10.0549 27.0117V14.3686C10.0549 13.7882 9.72549 13.4745 9.1294 13.4745H7.73333ZM12.0627 16C11.4823 16 11.1372 16.3608 11.1372 16.9255V27.0117C11.1372 27.5921 11.4823 27.9215 12.0627 27.9215H15.0902C15.7019 27.9215 16 27.5921 16 27.0117V16.9255C16 16.3608 15.7019 16 15.0902 16H12.0627ZM14.8863 25.7254C14.8863 26.0077 14.6823 26.2275 14.4 26.2275H12.7686C12.5019 26.2275 12.298 26.0077 12.298 25.7254C12.298 25.4431 12.4863 25.2392 12.7686 25.2392H14.4C14.6823 25.2392 14.8863 25.4588 14.8863 25.7254ZM14.8863 18.2274C14.8863 18.4627 14.6823 18.7137 14.4 18.7137H12.7686C12.4863 18.7137 12.298 18.4784 12.298 18.2274C12.298 17.9451 12.5019 17.7412 12.7686 17.7412H14.4C14.6823 17.7412 14.8863 17.9451 14.8863 18.2274Z" fill="#D2D6DA"/>
</svg>
