<svg width="32" height="40" viewBox="0 0 32 40" fill="none" xmlns="http://www.w3.org/2000/svg">
<circle cx="16" cy="20" r="16" fill="white"/>
<path d="M1.64706 20C1.64706 28.0627 7.93726 34.3371 15.9843 34.3371V5.64706C7.93726 5.64706 1.64706 11.9373 1.64706 20ZM15.1843 7.24706H20.7686V5.19216H15.1843V7.24706ZM15.1843 10.6196H26.5412V8.87843H15.1843V10.6196ZM15.1843 13.9765H28.7842V12.2353H15.1843V13.9765ZM15.1843 17.349H30.4628V15.6078H15.1843V17.349ZM15.1843 20.7059H30.4628V18.9647H15.1843V20.7059ZM15.1843 24.0784H30.4628V22.3372H15.1843V24.0784ZM15.1843 27.4509H28.7842V25.7099H15.1843V27.4509ZM15.1843 31.1216H26.5412V29.0666H15.1843V31.1216ZM15.1843 34.8078H20.7686V32.753H15.1843V34.8078ZM16 36C24.7528 36 32 28.7373 32 20C32 11.2471 24.7373 4 15.9843 4C7.24706 4 0 11.2471 0 20C0 28.7373 7.26275 36 16 36ZM16 33.3332C8.59608 33.3332 2.68235 27.4039 2.68235 20C2.68235 12.5961 8.58039 6.66666 15.9843 6.66666C23.3882 6.66666 29.3332 12.5961 29.3332 20C29.3332 27.4039 23.4039 33.3332 16 33.3332Z" fill="#D2D6DA"/>
</svg>
