<svg width="32" height="40" viewBox="0 0 32 40" fill="none" xmlns="http://www.w3.org/2000/svg">
<circle cx="16" cy="20" r="16" fill="white"/>
<path d="M32 20C32 28.7529 24.7528 36 16 36C7.26275 36 0 28.7529 0 20C0 11.2627 7.24706 4 15.9843 4C24.7373 4 32 11.2627 32 20ZM12.7529 11.1686C11.749 11.1686 11.1059 11.6392 10.9176 12.4863H8.78432C7.82744 12.4863 7.23137 13.0824 7.23137 13.9765C7.24706 17.2863 9.58431 19.451 12.8 20.4706C13.2706 21.0667 13.8196 21.5686 14.3686 21.8823V25.1295H13.2549C12.0627 25.1295 11.3725 25.851 11.3725 27.0117V28.3608C11.3725 28.7686 11.702 29.1137 12.1412 29.1137H19.8589C20.2979 29.1137 20.6274 28.7686 20.6274 28.3608V27.0117C20.6274 25.851 19.9372 25.1295 18.745 25.1295H17.6314V21.8823C18.1803 21.5686 18.7293 21.0667 19.2 20.4706C22.4157 19.451 24.7686 17.2863 24.7686 13.9765C24.7686 13.0824 24.1724 12.4863 23.2156 12.4863H21.0823C20.894 11.6392 20.251 11.1686 19.2471 11.1686H12.7529ZM10.8706 15.4353C10.8706 16.4392 11.0745 17.4431 11.4666 18.3843C10.102 17.5216 8.72156 16.0627 8.70588 14.1647C8.70588 14.0863 8.76863 14.0235 8.84705 14.0235H10.8706V15.4353ZM23.2942 14.1647C23.2785 16.0627 21.9137 17.5216 20.5491 18.3843C20.9255 17.4431 21.1452 16.4392 21.1452 15.4353V14.0235H23.153C23.2314 14.0235 23.2942 14.0863 23.2942 14.1647Z" fill="#D2D6DA"/>
</svg>
