<svg width="32" height="40" viewBox="0 0 32 40" fill="none" xmlns="http://www.w3.org/2000/svg">
<circle cx="16" cy="20" r="16" fill="white"/>
<path d="M32 20C32 28.7529 24.7528 36 16 36C7.26275 36 0 28.7529 0 20C0 11.2627 7.24706 4 15.9843 4C24.7373 4 32 11.2627 32 20ZM7.74902 12.8627C6.72941 12.8627 6.10196 13.5686 6.10196 14.651V28.9569C8.53333 31.6549 12.047 33.3332 16 33.3332C17.3647 33.3332 18.6824 33.1294 19.9215 32.7528V14.651C19.9215 13.5686 19.3097 12.8627 18.2746 12.8627H7.74902ZM21.1452 16.8784V32.3136C23.7334 31.2471 25.8979 29.3647 27.3411 27.0117V18.6353C27.3411 17.5529 26.7138 16.8784 25.6941 16.8784H21.1452ZM11.8745 27.9687V29.6313C11.8745 29.8667 11.702 30.0079 11.498 30.0079H9.78824C9.56862 30.0079 9.42745 29.8667 9.42745 29.6313V27.9687C9.42745 27.7647 9.56862 27.5921 9.78824 27.5921H11.498C11.702 27.5921 11.8745 27.7647 11.8745 27.9687ZM16.5804 27.9687V29.6313C16.5804 29.8667 16.4235 30.0079 16.2039 30.0079H14.4941C14.2745 30.0079 14.1333 29.8667 14.1333 29.6313V27.9687C14.1333 27.7647 14.2745 27.5921 14.4941 27.5921H16.2039C16.4235 27.5921 16.5804 27.7647 16.5804 27.9687ZM25.2549 26.949V28.3765C25.2549 28.5333 25.1294 28.6745 24.9726 28.6745H23.498C23.3097 28.6745 23.1842 28.5333 23.1842 28.3765V26.949C23.1842 26.7921 23.3097 26.651 23.498 26.651H24.9726C25.1294 26.651 25.2549 26.7921 25.2549 26.949ZM11.8745 23.9999V25.6471C11.8745 25.8666 11.702 26.0235 11.498 26.0235H9.78824C9.56862 26.0235 9.42745 25.8666 9.42745 25.6471V23.9999C9.42745 23.7804 9.56862 23.6235 9.78824 23.6235H11.498C11.702 23.6235 11.8745 23.7804 11.8745 23.9999ZM16.5804 23.9999V25.6471C16.5804 25.8666 16.4235 26.0235 16.2039 26.0235H14.4941C14.2745 26.0235 14.1333 25.8666 14.1333 25.6471V23.9999C14.1333 23.7804 14.2745 23.6235 14.4941 23.6235H16.2039C16.4235 23.6235 16.5804 23.7804 16.5804 23.9999ZM25.2549 23.3726V24.7843C25.2549 24.9569 25.1294 25.0824 24.9726 25.0824H23.498C23.3097 25.0824 23.1842 24.9569 23.1842 24.7843V23.3726C23.1842 23.2 23.3097 23.0745 23.498 23.0745H24.9726C25.1294 23.0745 25.2549 23.2 25.2549 23.3726ZM11.8745 20.0157V21.6784C11.8745 21.8823 11.702 22.0549 11.498 22.0549H9.78824C9.56862 22.0549 9.42745 21.8823 9.42745 21.6784V20.0157C9.42745 19.7961 9.56862 19.6392 9.78824 19.6392H11.498C11.702 19.6392 11.8745 19.7961 11.8745 20.0157ZM16.5804 20.0157V21.6784C16.5804 21.8823 16.4235 22.0549 16.2039 22.0549H14.4941C14.2745 22.0549 14.1333 21.8823 14.1333 21.6784V20.0157C14.1333 19.7961 14.2745 19.6392 14.4941 19.6392H16.2039C16.4235 19.6392 16.5804 19.7961 16.5804 20.0157ZM25.2549 19.7804V21.2078C25.2549 21.3804 25.1294 21.5059 24.9726 21.5059H23.498C23.3097 21.5059 23.1842 21.3804 23.1842 21.2078V19.7804C23.1842 19.6235 23.3097 19.4823 23.498 19.4823H24.9726C25.1294 19.4823 25.2549 19.6235 25.2549 19.7804ZM11.8745 16.0627V17.7255C11.8745 17.9451 11.702 18.102 11.498 18.102H9.78824C9.56862 18.102 9.42745 17.9451 9.42745 17.7255V16.0627C9.42745 15.8431 9.56862 15.6863 9.78824 15.6863H11.498C11.702 15.6863 11.8745 15.8431 11.8745 16.0627ZM16.5804 16.0627V17.7255C16.5804 17.9451 16.4235 18.102 16.2039 18.102H14.4941C14.2745 18.102 14.1333 17.9451 14.1333 17.7255V16.0627C14.1333 15.8431 14.2745 15.6863 14.4941 15.6863H16.2039C16.4235 15.6863 16.5804 15.8431 16.5804 16.0627Z" fill="#096DE7"/>
</svg>
