<svg width="33" height="32" viewBox="0 0 33 32" fill="none" xmlns="http://www.w3.org/2000/svg">
<g clip-path="url(#clip0_708_373)">
<path d="M27.152 7.62238V26.6394C27.152 29.3123 25.822 30.6424 23.1874 30.6424H14.25C16.4276 30.3376 18.6902 29.8855 21.218 29.1844C23.8141 28.4426 25.0035 26.7802 25.0035 23.8003V5.07741C25.0035 4.6435 24.9705 4.23412 24.9028 3.85385C26.3988 4.35282 27.152 5.61102 27.152 7.62238Z" fill="#656D76"/>
<path d="M23.2644 5.0774V23.8003C23.2644 26.0384 22.561 26.9975 20.7449 27.509C15.8596 28.8519 12.0613 29.2483 7.76423 29.4786C5.39829 29.6192 4.01709 28.4682 4.01709 26.2429V7.20036C4.01709 4.88556 5.3855 3.70899 7.4573 3.58111C12.0613 3.31254 15.8596 2.6731 19.4404 1.86741C21.8959 1.2919 23.2644 2.53243 23.2644 5.0774ZM13.532 20.7055C12.2659 20.91 10.8719 21.1018 8.74898 21.2169C8.21183 21.2681 7.98164 21.575 7.98164 21.9843C7.98164 22.4063 8.28857 22.7388 8.74898 22.7132C10.9103 22.5853 12.3426 22.3807 13.775 22.1505C14.2098 22.0738 14.44 21.7285 14.44 21.3832C14.44 20.9867 14.1203 20.603 13.532 20.7055ZM18.4045 15.577C15.4759 16.2293 12.4833 16.7536 8.74898 16.9966C8.21183 17.035 7.98164 17.3547 7.98164 17.7512C7.98164 18.1732 8.28857 18.5057 8.74898 18.4802C12.4833 18.2372 15.4759 17.7128 18.5453 17.035C19.1592 16.9071 19.2997 16.6002 19.2997 16.2293C19.2997 15.82 18.9928 15.4619 18.4045 15.577ZM18.4045 11.3312C15.4759 11.9834 12.4833 12.5077 8.74898 12.7507C8.21183 12.7891 7.98164 13.1088 7.98164 13.5053C7.98164 13.9273 8.28857 14.2598 8.74898 14.2342C12.4833 13.9912 15.4759 13.4669 18.5453 12.7891C19.1592 12.6612 19.2997 12.3543 19.2997 11.9834C19.2997 11.5741 18.9928 11.2161 18.4045 11.3312ZM18.4045 7.09804C15.4759 7.73749 12.4833 8.26183 8.74898 8.50482C8.21183 8.54319 7.98164 8.8629 7.98164 9.27214C7.98164 9.69418 8.28857 10.0139 8.74898 9.98832C12.4833 9.74534 15.4759 9.23379 18.5453 8.54319C19.1592 8.4153 19.2997 8.10836 19.2997 7.73749C19.2997 7.32825 18.9928 6.97015 18.4045 7.09804Z" fill="#656D76"/>
</g>
<defs>
<clipPath id="clip0_708_373">
<rect width="32" height="32" fill="white" transform="translate(0.5)"/>
</clipPath>
</defs>
</svg>
