<svg width="241" height="240" viewBox="0 0 241 240" fill="none" xmlns="http://www.w3.org/2000/svg">
<path d="M116.096 2.54246C118.821 0.969183 122.179 0.96918 124.904 2.54246L220.019 57.4575C222.744 59.0308 224.423 61.9384 224.423 65.0849V174.915C224.423 178.062 222.744 180.969 220.019 182.542L124.904 237.458C122.179 239.031 118.821 239.031 116.096 237.458L20.9806 182.542C18.2556 180.969 16.577 178.062 16.577 174.915V65.0849C16.577 61.9384 18.2556 59.0308 20.9806 57.4575L116.096 2.54246Z" fill="#F4F5F6"/>
<path d="M198.774 73.2505L122.943 52.3969C122.013 52.141 121.021 52.2302 120.151 52.6481L59.9278 81.574C58.7233 82.1526 57.8872 83.2944 57.6994 84.6174L46.875 160.859C46.6479 162.458 47.405 164.037 48.7942 164.861L119.758 206.966C120.853 207.616 122.192 207.706 123.364 207.207L205.87 172.118C207.443 171.449 208.417 169.855 208.294 168.15L201.703 76.8194C201.582 75.1295 200.408 73.6997 198.774 73.2505Z" fill="#EFE3F8" stroke="#9A48D0" stroke-width="4"/>
</svg>
