<svg width="29" height="32" viewBox="0 0 29 32" fill="none" xmlns="http://www.w3.org/2000/svg">
<path d="M7.80795 0C3.80024 0 0.547607 3.25264 0.547607 7.26034C0.547607 8.98831 1.15748 10.5856 2.1594 11.8344C2.40626 12.1393 2.69667 12.2555 2.97256 12.2555C3.68408 12.2555 4.29395 11.4133 3.68408 10.6872C2.89996 9.75791 2.44982 8.56721 2.44982 7.26034C2.44982 4.29812 4.84573 1.90222 7.80795 1.90222C10.7702 1.90222 13.1516 4.29812 13.1516 7.26034C13.1516 7.34748 13.1516 7.4346 13.1516 7.56528C13.1661 8.21871 13.6162 8.50913 14.0809 8.50913C14.531 8.50913 14.9957 8.18967 15.0393 7.68144C15.0538 7.5798 15.0538 7.44912 15.0538 7.26034C15.0538 3.25264 11.8157 0 7.80795 0Z" fill="#D2D6DA"/>
<path d="M21.922 31.2919C27.8464 29.1428 29.8214 24.2204 27.5125 17.8747L26.5686 15.2611C25.6829 12.8652 24.0129 11.8197 22.7061 12.2843C22.4011 12.4005 22.2995 12.6183 22.4011 12.8942L22.8223 14.0559C23.0256 14.6077 22.8513 14.9707 22.5174 15.1013C22.1688 15.2175 21.7913 15.0578 21.5881 14.506L21.3122 13.7509C20.7895 12.3279 19.5552 11.7325 18.3354 12.1827C17.7836 12.386 17.6093 12.7054 17.7836 13.1701L18.3645 14.7529C18.5531 15.3046 18.379 15.6677 18.0595 15.7983C17.6965 15.929 17.319 15.7548 17.1156 15.203L16.5929 13.7509C16.0121 12.1537 14.8214 11.7471 13.6307 12.1827C13.108 12.3715 12.9192 12.72 13.0789 13.1701L14.2115 16.263C14.4148 16.8147 14.226 17.1779 13.9066 17.3086C13.5436 17.4392 13.166 17.2649 12.9627 16.7131L9.20188 6.3599C8.83886 5.34345 7.93858 4.93686 7.08186 5.2418C6.16706 5.57578 5.77499 6.46153 6.13802 7.47799L11.6559 22.6375C11.7866 23.0152 11.6268 23.2911 11.3945 23.3782C11.1622 23.4652 10.9153 23.3927 10.6249 23.0732L6.89309 19.0654C6.34131 18.4847 5.76047 18.3395 5.1506 18.5718C4.22128 18.9058 3.85827 19.7625 4.13416 20.5466C4.25032 20.8516 4.41005 21.0838 4.55526 21.2727L9.17284 27.0664C13.0644 31.9453 17.5658 32.8746 21.922 31.2919Z" fill="#D2D6DA"/>
</svg>
