<svg width="32" height="40" viewBox="0 0 32 40" fill="none" xmlns="http://www.w3.org/2000/svg">
<circle cx="16" cy="20" r="16" fill="white"/>
<path d="M32 20C32 28.7529 24.7528 36 16 36C7.26275 36 0 28.7529 0 20C0 11.2627 7.24706 4 15.9843 4C24.7373 4 32 11.2627 32 20ZM18.2117 20.1882V20.847C18.2117 21.4274 17.8823 21.7725 17.3176 21.7725H14.7137C14.149 21.7725 13.8196 21.4274 13.8196 20.847V20.1882C11.498 20.0314 9.22352 19.6078 6.80783 18.7294V24.6902C6.80783 26.4 7.65489 27.2314 9.34901 27.2314H22.6824C24.3764 27.2314 25.2392 26.4 25.2392 24.6902V18.7294C22.8078 19.6078 20.5333 20.0314 18.2117 20.1882ZM13.2392 11.2314C11.9216 11.2314 11.0745 12.0157 11.0745 13.3019V14.1176H9.34901C7.65489 14.1176 6.80783 14.949 6.80783 16.6431V17.2863C9.85097 18.5255 12.8 18.9647 16.0157 18.9647C19.2314 18.9647 22.1803 18.5255 25.2392 17.2863V16.6431C25.2392 14.949 24.3764 14.1176 22.6824 14.1176H20.9569V13.3019C20.9569 12.0157 20.1098 11.2314 18.7921 11.2314H13.2392ZM19.404 13.3804V14.1176H12.6274V13.3804C12.6274 12.9568 12.8941 12.7059 13.349 12.7059H18.6824C19.1216 12.7059 19.404 12.9568 19.404 13.3804Z" fill="#32DE8A"/>
</svg>
