<svg width="267" height="162" viewBox="0 0 267 162" fill="none" xmlns="http://www.w3.org/2000/svg">
<rect width="267" height="162" rx="16" fill="white"/>
<path d="M82 81L104 81" stroke="#096DE7" stroke-width="6" stroke-miterlimit="16" stroke-linecap="round" stroke-dasharray="0.5 10"/>
<path d="M163 81L185 81" stroke="#096DE7" stroke-width="6" stroke-miterlimit="16" stroke-linecap="round" stroke-dasharray="0.5 10"/>
<path d="M148.083 84.443C148.588 84.443 149.087 84.4063 149.572 84.3227V91.0441C149.572 94.4522 147.835 96.1727 144.873 96.1727H117.195C113.737 96.1727 112 94.4688 112 91.0441V77.478H138.092C139.595 81.5388 143.513 84.443 148.083 84.443ZM124.855 67.1213L125.864 67.9485C126.691 68.6599 127.369 68.9246 128.494 68.9246H138.604C137.84 70.3792 137.412 72.03 137.412 73.7721C137.412 74.2957 137.45 74.8108 137.536 75.3107H112V70.8768C112 67.5515 113.671 65.8971 116.566 65.8971H121.281C122.919 65.8971 123.763 66.1949 124.855 67.1213Z" fill="#D2D6DA"/>
<path d="M156.488 73.7721C156.488 78.3713 152.633 82.1765 148.083 82.1765C143.467 82.1765 139.679 78.4044 139.679 73.7721C139.679 69.1728 143.467 65.3676 148.083 65.3676C152.682 65.3676 156.488 69.1728 156.488 73.7721ZM146.693 77.8915C146.693 78.5864 147.256 79.1489 147.934 79.1489C148.629 79.1489 149.175 78.5864 149.192 77.8915C149.192 77.2132 148.646 76.6507 147.934 76.6507C147.256 76.6507 146.693 77.2132 146.693 77.8915ZM144.857 70.4963C144.857 70.9926 145.204 71.3401 145.717 71.3401C146.181 71.3401 146.412 71.0423 146.726 70.7114C147.09 70.3309 147.554 70 148.315 70C149.175 70 149.738 70.4632 149.738 71.1416C149.738 71.9026 149.225 72.2335 148.331 72.8456C147.603 73.3585 147.041 73.8879 147.041 74.9136C147.041 74.9301 147.041 74.9467 147.041 74.9798C147.041 75.5423 147.372 75.8732 147.934 75.8732C148.53 75.8732 148.811 75.5754 148.861 75.0625C148.927 74.4007 149.274 74.1029 149.953 73.5901C150.912 72.8952 151.69 72.3493 151.69 71.0588C151.69 69.454 150.35 68.296 148.298 68.296C146.545 68.296 144.857 69.2224 144.857 70.4963Z" fill="#D2D6DA"/>
<path d="M32.003 112.99H79.9981C83.8275 112.99 86.1181 111.201 86.1181 108.23C86.1181 98.9959 74.5577 86.2545 55.9825 86.2545C37.4431 86.2545 25.8828 98.9959 25.8828 108.23C25.8828 111.201 28.1734 112.99 32.003 112.99ZM56.0183 79.848C63.6775 79.848 70.3344 72.9763 70.3344 64.0287C70.3344 55.1884 63.6775 48.6388 56.0183 48.6388C48.3592 48.6388 41.7022 55.3316 41.7022 64.1003C41.7022 72.9763 48.3234 79.848 56.0183 79.848Z" fill="#D2D6DA"/>
<path d="M187.003 112.99H234.998C238.828 112.99 241.118 111.201 241.118 108.23C241.118 98.9959 229.558 86.2545 210.983 86.2545C192.443 86.2545 180.883 98.9959 180.883 108.23C180.883 111.201 183.173 112.99 187.003 112.99ZM211.018 79.848C218.677 79.848 225.334 72.9763 225.334 64.0287C225.334 55.1884 218.677 48.6388 211.018 48.6388C203.359 48.6388 196.702 55.3316 196.702 64.1003C196.702 72.9763 203.323 79.848 211.018 79.848Z" fill="#D2D6DA"/>
</svg>
