<svg width="295" height="262" viewBox="0 0 295 262" fill="none" xmlns="http://www.w3.org/2000/svg">
<g filter="url(#filter0_d_750_35844)">
<rect x="12" y="4" width="212" height="208" rx="16" fill="white"/>
<rect x="36" y="28" width="89" height="14" rx="7" fill="#656D76"/>
<path d="M44.6719 65.2305V68.6875H42.8438V65.2305H44.6719ZM44.4492 84.3672V87.5195H42.6211V84.3672H44.4492ZM45.7383 80.5234C45.7383 80.0781 45.6562 79.6992 45.4922 79.3867C45.3359 79.0742 45.0781 78.7969 44.7188 78.5547C44.3672 78.3125 43.8906 78.0781 43.2891 77.8516C42.2734 77.4609 41.3789 77.0469 40.6055 76.6094C39.8398 76.1641 39.2422 75.6133 38.8125 74.957C38.3828 74.293 38.168 73.4531 38.168 72.4375C38.168 71.4688 38.3984 70.6289 38.8594 69.918C39.3203 69.207 39.957 68.6602 40.7695 68.2773C41.5898 67.8867 42.543 67.6914 43.6289 67.6914C44.457 67.6914 45.207 67.8164 45.8789 68.0664C46.5508 68.3086 47.1289 68.668 47.6133 69.1445C48.0977 69.6133 48.4688 70.1875 48.7266 70.8672C48.9844 71.5469 49.1133 72.3242 49.1133 73.1992H45.75C45.75 72.7305 45.6992 72.3164 45.5977 71.957C45.4961 71.5977 45.3477 71.2969 45.1523 71.0547C44.9648 70.8125 44.7383 70.6328 44.4727 70.5156C44.207 70.3906 43.9141 70.3281 43.5938 70.3281C43.1172 70.3281 42.7266 70.4219 42.4219 70.6094C42.1172 70.7969 41.8945 71.0508 41.7539 71.3711C41.6211 71.6836 41.5547 72.043 41.5547 72.4492C41.5547 72.8477 41.625 73.1953 41.7656 73.4922C41.9141 73.7891 42.168 74.0625 42.5273 74.3125C42.8867 74.5547 43.3789 74.8047 44.0039 75.0625C45.0195 75.4531 45.9102 75.875 46.6758 76.3281C47.4414 76.7812 48.0391 77.3359 48.4688 77.9922C48.8984 78.6484 49.1133 79.4844 49.1133 80.5C49.1133 81.5078 48.8789 82.3672 48.4102 83.0781C47.9414 83.7812 47.2852 84.3203 46.4414 84.6953C45.5977 85.0625 44.6211 85.2461 43.5117 85.2461C42.793 85.2461 42.0781 85.1523 41.3672 84.9648C40.6562 84.7695 40.0117 84.457 39.4336 84.0273C38.8555 83.5977 38.3945 83.0273 38.0508 82.3164C37.707 81.5977 37.5352 80.7148 37.5352 79.668H40.9102C40.9102 80.2383 40.9844 80.7148 41.1328 81.0977C41.2812 81.4727 41.4766 81.7734 41.7188 82C41.9688 82.2188 42.25 82.375 42.5625 82.4688C42.875 82.5625 43.1914 82.6094 43.5117 82.6094C44.0117 82.6094 44.4219 82.5195 44.7422 82.3398C45.0703 82.1602 45.3164 81.9141 45.4805 81.6016C45.6523 81.2812 45.7383 80.9219 45.7383 80.5234ZM53.8008 82.4336H54.0234C54.9609 82.4336 55.7656 82.3203 56.4375 82.0938C57.1172 81.8594 57.6758 81.5234 58.1133 81.0859C58.5508 80.6484 58.875 80.1133 59.0859 79.4805C59.2969 78.8398 59.4023 78.1133 59.4023 77.3008V74.0664C59.4023 73.4492 59.3398 72.9062 59.2148 72.4375C59.0977 71.9688 58.9258 71.582 58.6992 71.2773C58.4805 70.9648 58.2227 70.7305 57.9258 70.5742C57.6367 70.418 57.3164 70.3398 56.9648 70.3398C56.5898 70.3398 56.2578 70.4336 55.9688 70.6211C55.6797 70.8008 55.4336 71.0469 55.2305 71.3594C55.0352 71.6719 54.8828 72.0312 54.7734 72.4375C54.6719 72.8359 54.6211 73.2539 54.6211 73.6914C54.6211 74.1289 54.6719 74.5469 54.7734 74.9453C54.875 75.3359 55.0273 75.6836 55.2305 75.9883C55.4336 76.2852 55.6875 76.5234 55.9922 76.7031C56.2969 76.875 56.6562 76.9609 57.0703 76.9609C57.4688 76.9609 57.8242 76.8867 58.1367 76.7383C58.457 76.582 58.7266 76.3789 58.9453 76.1289C59.1719 75.8789 59.3438 75.6016 59.4609 75.2969C59.5859 74.9922 59.6484 74.6836 59.6484 74.3711L60.7617 74.9805C60.7617 75.5273 60.6445 76.0664 60.4102 76.5977C60.1758 77.1289 59.8477 77.6133 59.4258 78.0508C59.0117 78.4805 58.5312 78.8242 57.9844 79.082C57.4375 79.3398 56.8516 79.4688 56.2266 79.4688C55.4297 79.4688 54.7227 79.3242 54.1055 79.0352C53.4883 78.7383 52.9648 78.332 52.5352 77.8164C52.1133 77.293 51.793 76.6836 51.5742 75.9883C51.3555 75.293 51.2461 74.5391 51.2461 73.7266C51.2461 72.8984 51.3789 72.1211 51.6445 71.3945C51.918 70.668 52.3047 70.0273 52.8047 69.4727C53.3125 68.918 53.918 68.4844 54.6211 68.1719C55.332 67.8516 56.1211 67.6914 56.9883 67.6914C57.8555 67.6914 58.6445 67.8594 59.3555 68.1953C60.0664 68.5312 60.6758 69.0078 61.1836 69.625C61.6914 70.2344 62.082 70.9648 62.3555 71.8164C62.6367 72.668 62.7773 73.6133 62.7773 74.6523V75.8242C62.7773 76.9336 62.6562 77.9648 62.4141 78.918C62.1797 79.8711 61.8242 80.7344 61.3477 81.5078C60.8789 82.2734 60.293 82.9297 59.5898 83.4766C58.8945 84.0234 58.0859 84.4414 57.1641 84.7305C56.2422 85.0195 55.2109 85.1641 54.0703 85.1641H53.8008V82.4336ZM65.4961 83.3711C65.4961 82.8711 65.668 82.4531 66.0117 82.1172C66.3633 81.7812 66.8281 81.6133 67.4062 81.6133C67.9844 81.6133 68.4453 81.7812 68.7891 82.1172C69.1406 82.4531 69.3164 82.8711 69.3164 83.3711C69.3164 83.8711 69.1406 84.2891 68.7891 84.625C68.4453 84.9609 67.9844 85.1289 67.4062 85.1289C66.8281 85.1289 66.3633 84.9609 66.0117 84.625C65.668 84.2891 65.4961 83.8711 65.4961 83.3711ZM74.543 82.4336H74.7656C75.7031 82.4336 76.5078 82.3203 77.1797 82.0938C77.8594 81.8594 78.418 81.5234 78.8555 81.0859C79.293 80.6484 79.6172 80.1133 79.8281 79.4805C80.0391 78.8398 80.1445 78.1133 80.1445 77.3008V74.0664C80.1445 73.4492 80.082 72.9062 79.957 72.4375C79.8398 71.9688 79.668 71.582 79.4414 71.2773C79.2227 70.9648 78.9648 70.7305 78.668 70.5742C78.3789 70.418 78.0586 70.3398 77.707 70.3398C77.332 70.3398 77 70.4336 76.7109 70.6211C76.4219 70.8008 76.1758 71.0469 75.9727 71.3594C75.7773 71.6719 75.625 72.0312 75.5156 72.4375C75.4141 72.8359 75.3633 73.2539 75.3633 73.6914C75.3633 74.1289 75.4141 74.5469 75.5156 74.9453C75.6172 75.3359 75.7695 75.6836 75.9727 75.9883C76.1758 76.2852 76.4297 76.5234 76.7344 76.7031C77.0391 76.875 77.3984 76.9609 77.8125 76.9609C78.2109 76.9609 78.5664 76.8867 78.8789 76.7383C79.1992 76.582 79.4688 76.3789 79.6875 76.1289C79.9141 75.8789 80.0859 75.6016 80.2031 75.2969C80.3281 74.9922 80.3906 74.6836 80.3906 74.3711L81.5039 74.9805C81.5039 75.5273 81.3867 76.0664 81.1523 76.5977C80.918 77.1289 80.5898 77.6133 80.168 78.0508C79.7539 78.4805 79.2734 78.8242 78.7266 79.082C78.1797 79.3398 77.5938 79.4688 76.9688 79.4688C76.1719 79.4688 75.4648 79.3242 74.8477 79.0352C74.2305 78.7383 73.707 78.332 73.2773 77.8164C72.8555 77.293 72.5352 76.6836 72.3164 75.9883C72.0977 75.293 71.9883 74.5391 71.9883 73.7266C71.9883 72.8984 72.1211 72.1211 72.3867 71.3945C72.6602 70.668 73.0469 70.0273 73.5469 69.4727C74.0547 68.918 74.6602 68.4844 75.3633 68.1719C76.0742 67.8516 76.8633 67.6914 77.7305 67.6914C78.5977 67.6914 79.3867 67.8594 80.0977 68.1953C80.8086 68.5312 81.418 69.0078 81.9258 69.625C82.4336 70.2344 82.8242 70.9648 83.0977 71.8164C83.3789 72.668 83.5195 73.6133 83.5195 74.6523V75.8242C83.5195 76.9336 83.3984 77.9648 83.1562 78.918C82.9219 79.8711 82.5664 80.7344 82.0898 81.5078C81.6211 82.2734 81.0352 82.9297 80.332 83.4766C79.6367 84.0234 78.8281 84.4414 77.9062 84.7305C76.9844 85.0195 75.9531 85.1641 74.8125 85.1641H74.543V82.4336ZM88.3242 82.4336H88.5469C89.4844 82.4336 90.2891 82.3203 90.9609 82.0938C91.6406 81.8594 92.1992 81.5234 92.6367 81.0859C93.0742 80.6484 93.3984 80.1133 93.6094 79.4805C93.8203 78.8398 93.9258 78.1133 93.9258 77.3008V74.0664C93.9258 73.4492 93.8633 72.9062 93.7383 72.4375C93.6211 71.9688 93.4492 71.582 93.2227 71.2773C93.0039 70.9648 92.7461 70.7305 92.4492 70.5742C92.1602 70.418 91.8398 70.3398 91.4883 70.3398C91.1133 70.3398 90.7812 70.4336 90.4922 70.6211C90.2031 70.8008 89.957 71.0469 89.7539 71.3594C89.5586 71.6719 89.4062 72.0312 89.2969 72.4375C89.1953 72.8359 89.1445 73.2539 89.1445 73.6914C89.1445 74.1289 89.1953 74.5469 89.2969 74.9453C89.3984 75.3359 89.5508 75.6836 89.7539 75.9883C89.957 76.2852 90.2109 76.5234 90.5156 76.7031C90.8203 76.875 91.1797 76.9609 91.5938 76.9609C91.9922 76.9609 92.3477 76.8867 92.6602 76.7383C92.9805 76.582 93.25 76.3789 93.4688 76.1289C93.6953 75.8789 93.8672 75.6016 93.9844 75.2969C94.1094 74.9922 94.1719 74.6836 94.1719 74.3711L95.2852 74.9805C95.2852 75.5273 95.168 76.0664 94.9336 76.5977C94.6992 77.1289 94.3711 77.6133 93.9492 78.0508C93.5352 78.4805 93.0547 78.8242 92.5078 79.082C91.9609 79.3398 91.375 79.4688 90.75 79.4688C89.9531 79.4688 89.2461 79.3242 88.6289 79.0352C88.0117 78.7383 87.4883 78.332 87.0586 77.8164C86.6367 77.293 86.3164 76.6836 86.0977 75.9883C85.8789 75.293 85.7695 74.5391 85.7695 73.7266C85.7695 72.8984 85.9023 72.1211 86.168 71.3945C86.4414 70.668 86.8281 70.0273 87.3281 69.4727C87.8359 68.918 88.4414 68.4844 89.1445 68.1719C89.8555 67.8516 90.6445 67.6914 91.5117 67.6914C92.3789 67.6914 93.168 67.8594 93.8789 68.1953C94.5898 68.5312 95.1992 69.0078 95.707 69.625C96.2148 70.2344 96.6055 70.9648 96.8789 71.8164C97.1602 72.668 97.3008 73.6133 97.3008 74.6523V75.8242C97.3008 76.9336 97.1797 77.9648 96.9375 78.918C96.7031 79.8711 96.3477 80.7344 95.8711 81.5078C95.4023 82.2734 94.8164 82.9297 94.1133 83.4766C93.418 84.0234 92.6094 84.4414 91.6875 84.7305C90.7656 85.0195 89.7344 85.1641 88.5938 85.1641H88.3242V82.4336Z" fill="#2A2E32"/>
<rect x="36" y="112" width="164" height="24" rx="4" stroke="#096DE7" stroke-width="3"/>
<rect x="36" y="156" width="140" height="14" rx="7" fill="#D2D6DA"/>
<rect x="36" y="174" width="80" height="14" rx="7" fill="#D2D6DA"/>
</g>
<g filter="url(#filter1_d_750_35844)">
<rect x="67" y="26" width="212" height="208" rx="16" fill="white"/>
<rect x="91" y="50" width="89" height="14" rx="7" fill="#656D76"/>
<path d="M99.6719 87.2305V90.6875H97.8438V87.2305H99.6719ZM99.4492 106.367V109.52H97.6211V106.367H99.4492ZM100.738 102.523C100.738 102.078 100.656 101.699 100.492 101.387C100.336 101.074 100.078 100.797 99.7188 100.555C99.3672 100.312 98.8906 100.078 98.2891 99.8516C97.2734 99.4609 96.3789 99.0469 95.6055 98.6094C94.8398 98.1641 94.2422 97.6133 93.8125 96.957C93.3828 96.293 93.168 95.4531 93.168 94.4375C93.168 93.4688 93.3984 92.6289 93.8594 91.918C94.3203 91.207 94.957 90.6602 95.7695 90.2773C96.5898 89.8867 97.543 89.6914 98.6289 89.6914C99.457 89.6914 100.207 89.8164 100.879 90.0664C101.551 90.3086 102.129 90.668 102.613 91.1445C103.098 91.6133 103.469 92.1875 103.727 92.8672C103.984 93.5469 104.113 94.3242 104.113 95.1992H100.75C100.75 94.7305 100.699 94.3164 100.598 93.957C100.496 93.5977 100.348 93.2969 100.152 93.0547C99.9648 92.8125 99.7383 92.6328 99.4727 92.5156C99.207 92.3906 98.9141 92.3281 98.5938 92.3281C98.1172 92.3281 97.7266 92.4219 97.4219 92.6094C97.1172 92.7969 96.8945 93.0508 96.7539 93.3711C96.6211 93.6836 96.5547 94.043 96.5547 94.4492C96.5547 94.8477 96.625 95.1953 96.7656 95.4922C96.9141 95.7891 97.168 96.0625 97.5273 96.3125C97.8867 96.5547 98.3789 96.8047 99.0039 97.0625C100.02 97.4531 100.91 97.875 101.676 98.3281C102.441 98.7812 103.039 99.3359 103.469 99.9922C103.898 100.648 104.113 101.484 104.113 102.5C104.113 103.508 103.879 104.367 103.41 105.078C102.941 105.781 102.285 106.32 101.441 106.695C100.598 107.062 99.6211 107.246 98.5117 107.246C97.793 107.246 97.0781 107.152 96.3672 106.965C95.6562 106.77 95.0117 106.457 94.4336 106.027C93.8555 105.598 93.3945 105.027 93.0508 104.316C92.707 103.598 92.5352 102.715 92.5352 101.668H95.9102C95.9102 102.238 95.9844 102.715 96.1328 103.098C96.2812 103.473 96.4766 103.773 96.7188 104C96.9688 104.219 97.25 104.375 97.5625 104.469C97.875 104.562 98.1914 104.609 98.5117 104.609C99.0117 104.609 99.4219 104.52 99.7422 104.34C100.07 104.16 100.316 103.914 100.48 103.602C100.652 103.281 100.738 102.922 100.738 102.523ZM108.801 104.434H109.023C109.961 104.434 110.766 104.32 111.438 104.094C112.117 103.859 112.676 103.523 113.113 103.086C113.551 102.648 113.875 102.113 114.086 101.48C114.297 100.84 114.402 100.113 114.402 99.3008V96.0664C114.402 95.4492 114.34 94.9062 114.215 94.4375C114.098 93.9688 113.926 93.582 113.699 93.2773C113.48 92.9648 113.223 92.7305 112.926 92.5742C112.637 92.418 112.316 92.3398 111.965 92.3398C111.59 92.3398 111.258 92.4336 110.969 92.6211C110.68 92.8008 110.434 93.0469 110.23 93.3594C110.035 93.6719 109.883 94.0312 109.773 94.4375C109.672 94.8359 109.621 95.2539 109.621 95.6914C109.621 96.1289 109.672 96.5469 109.773 96.9453C109.875 97.3359 110.027 97.6836 110.23 97.9883C110.434 98.2852 110.688 98.5234 110.992 98.7031C111.297 98.875 111.656 98.9609 112.07 98.9609C112.469 98.9609 112.824 98.8867 113.137 98.7383C113.457 98.582 113.727 98.3789 113.945 98.1289C114.172 97.8789 114.344 97.6016 114.461 97.2969C114.586 96.9922 114.648 96.6836 114.648 96.3711L115.762 96.9805C115.762 97.5273 115.645 98.0664 115.41 98.5977C115.176 99.1289 114.848 99.6133 114.426 100.051C114.012 100.48 113.531 100.824 112.984 101.082C112.438 101.34 111.852 101.469 111.227 101.469C110.43 101.469 109.723 101.324 109.105 101.035C108.488 100.738 107.965 100.332 107.535 99.8164C107.113 99.293 106.793 98.6836 106.574 97.9883C106.355 97.293 106.246 96.5391 106.246 95.7266C106.246 94.8984 106.379 94.1211 106.645 93.3945C106.918 92.668 107.305 92.0273 107.805 91.4727C108.312 90.918 108.918 90.4844 109.621 90.1719C110.332 89.8516 111.121 89.6914 111.988 89.6914C112.855 89.6914 113.645 89.8594 114.355 90.1953C115.066 90.5312 115.676 91.0078 116.184 91.625C116.691 92.2344 117.082 92.9648 117.355 93.8164C117.637 94.668 117.777 95.6133 117.777 96.6523V97.8242C117.777 98.9336 117.656 99.9648 117.414 100.918C117.18 101.871 116.824 102.734 116.348 103.508C115.879 104.273 115.293 104.93 114.59 105.477C113.895 106.023 113.086 106.441 112.164 106.73C111.242 107.02 110.211 107.164 109.07 107.164H108.801V104.434ZM120.496 105.371C120.496 104.871 120.668 104.453 121.012 104.117C121.363 103.781 121.828 103.613 122.406 103.613C122.984 103.613 123.445 103.781 123.789 104.117C124.141 104.453 124.316 104.871 124.316 105.371C124.316 105.871 124.141 106.289 123.789 106.625C123.445 106.961 122.984 107.129 122.406 107.129C121.828 107.129 121.363 106.961 121.012 106.625C120.668 106.289 120.496 105.871 120.496 105.371ZM129.543 104.434H129.766C130.703 104.434 131.508 104.32 132.18 104.094C132.859 103.859 133.418 103.523 133.855 103.086C134.293 102.648 134.617 102.113 134.828 101.48C135.039 100.84 135.145 100.113 135.145 99.3008V96.0664C135.145 95.4492 135.082 94.9062 134.957 94.4375C134.84 93.9688 134.668 93.582 134.441 93.2773C134.223 92.9648 133.965 92.7305 133.668 92.5742C133.379 92.418 133.059 92.3398 132.707 92.3398C132.332 92.3398 132 92.4336 131.711 92.6211C131.422 92.8008 131.176 93.0469 130.973 93.3594C130.777 93.6719 130.625 94.0312 130.516 94.4375C130.414 94.8359 130.363 95.2539 130.363 95.6914C130.363 96.1289 130.414 96.5469 130.516 96.9453C130.617 97.3359 130.77 97.6836 130.973 97.9883C131.176 98.2852 131.43 98.5234 131.734 98.7031C132.039 98.875 132.398 98.9609 132.812 98.9609C133.211 98.9609 133.566 98.8867 133.879 98.7383C134.199 98.582 134.469 98.3789 134.688 98.1289C134.914 97.8789 135.086 97.6016 135.203 97.2969C135.328 96.9922 135.391 96.6836 135.391 96.3711L136.504 96.9805C136.504 97.5273 136.387 98.0664 136.152 98.5977C135.918 99.1289 135.59 99.6133 135.168 100.051C134.754 100.48 134.273 100.824 133.727 101.082C133.18 101.34 132.594 101.469 131.969 101.469C131.172 101.469 130.465 101.324 129.848 101.035C129.23 100.738 128.707 100.332 128.277 99.8164C127.855 99.293 127.535 98.6836 127.316 97.9883C127.098 97.293 126.988 96.5391 126.988 95.7266C126.988 94.8984 127.121 94.1211 127.387 93.3945C127.66 92.668 128.047 92.0273 128.547 91.4727C129.055 90.918 129.66 90.4844 130.363 90.1719C131.074 89.8516 131.863 89.6914 132.73 89.6914C133.598 89.6914 134.387 89.8594 135.098 90.1953C135.809 90.5312 136.418 91.0078 136.926 91.625C137.434 92.2344 137.824 92.9648 138.098 93.8164C138.379 94.668 138.52 95.6133 138.52 96.6523V97.8242C138.52 98.9336 138.398 99.9648 138.156 100.918C137.922 101.871 137.566 102.734 137.09 103.508C136.621 104.273 136.035 104.93 135.332 105.477C134.637 106.023 133.828 106.441 132.906 106.73C131.984 107.02 130.953 107.164 129.812 107.164H129.543V104.434ZM143.324 104.434H143.547C144.484 104.434 145.289 104.32 145.961 104.094C146.641 103.859 147.199 103.523 147.637 103.086C148.074 102.648 148.398 102.113 148.609 101.48C148.82 100.84 148.926 100.113 148.926 99.3008V96.0664C148.926 95.4492 148.863 94.9062 148.738 94.4375C148.621 93.9688 148.449 93.582 148.223 93.2773C148.004 92.9648 147.746 92.7305 147.449 92.5742C147.16 92.418 146.84 92.3398 146.488 92.3398C146.113 92.3398 145.781 92.4336 145.492 92.6211C145.203 92.8008 144.957 93.0469 144.754 93.3594C144.559 93.6719 144.406 94.0312 144.297 94.4375C144.195 94.8359 144.145 95.2539 144.145 95.6914C144.145 96.1289 144.195 96.5469 144.297 96.9453C144.398 97.3359 144.551 97.6836 144.754 97.9883C144.957 98.2852 145.211 98.5234 145.516 98.7031C145.82 98.875 146.18 98.9609 146.594 98.9609C146.992 98.9609 147.348 98.8867 147.66 98.7383C147.98 98.582 148.25 98.3789 148.469 98.1289C148.695 97.8789 148.867 97.6016 148.984 97.2969C149.109 96.9922 149.172 96.6836 149.172 96.3711L150.285 96.9805C150.285 97.5273 150.168 98.0664 149.934 98.5977C149.699 99.1289 149.371 99.6133 148.949 100.051C148.535 100.48 148.055 100.824 147.508 101.082C146.961 101.34 146.375 101.469 145.75 101.469C144.953 101.469 144.246 101.324 143.629 101.035C143.012 100.738 142.488 100.332 142.059 99.8164C141.637 99.293 141.316 98.6836 141.098 97.9883C140.879 97.293 140.77 96.5391 140.77 95.7266C140.77 94.8984 140.902 94.1211 141.168 93.3945C141.441 92.668 141.828 92.0273 142.328 91.4727C142.836 90.918 143.441 90.4844 144.145 90.1719C144.855 89.8516 145.645 89.6914 146.512 89.6914C147.379 89.6914 148.168 89.8594 148.879 90.1953C149.59 90.5312 150.199 91.0078 150.707 91.625C151.215 92.2344 151.605 92.9648 151.879 93.8164C152.16 94.668 152.301 95.6133 152.301 96.6523V97.8242C152.301 98.9336 152.18 99.9648 151.938 100.918C151.703 101.871 151.348 102.734 150.871 103.508C150.402 104.273 149.816 104.93 149.113 105.477C148.418 106.023 147.609 106.441 146.688 106.73C145.766 107.02 144.734 107.164 143.594 107.164H143.324V104.434Z" fill="#2A2E32"/>
<rect x="91" y="134" width="164" height="24" rx="4" fill="#096DE7"/>
<rect x="91" y="178" width="140" height="14" rx="7" fill="#D2D6DA"/>
<rect x="91" y="196" width="80" height="14" rx="7" fill="#D2D6DA"/>
</g>
<defs>
<filter id="filter0_d_750_35844" x="0" y="0" width="236" height="232" filterUnits="userSpaceOnUse" color-interpolation-filters="sRGB">
<feFlood flood-opacity="0" result="BackgroundImageFix"/>
<feColorMatrix in="SourceAlpha" type="matrix" values="0 0 0 0 0 0 0 0 0 0 0 0 0 0 0 0 0 0 127 0" result="hardAlpha"/>
<feOffset dy="8"/>
<feGaussianBlur stdDeviation="6"/>
<feComposite in2="hardAlpha" operator="out"/>
<feColorMatrix type="matrix" values="0 0 0 0 0.164706 0 0 0 0 0.180392 0 0 0 0 0.196078 0 0 0 0.15 0"/>
<feBlend mode="normal" in2="BackgroundImageFix" result="effect1_dropShadow_750_35844"/>
<feBlend mode="normal" in="SourceGraphic" in2="effect1_dropShadow_750_35844" result="shape"/>
</filter>
<filter id="filter1_d_750_35844" x="51" y="22" width="244" height="240" filterUnits="userSpaceOnUse" color-interpolation-filters="sRGB">
<feFlood flood-opacity="0" result="BackgroundImageFix"/>
<feColorMatrix in="SourceAlpha" type="matrix" values="0 0 0 0 0 0 0 0 0 0 0 0 0 0 0 0 0 0 127 0" result="hardAlpha"/>
<feOffset dy="12"/>
<feGaussianBlur stdDeviation="8"/>
<feComposite in2="hardAlpha" operator="out"/>
<feColorMatrix type="matrix" values="0 0 0 0 0.164706 0 0 0 0 0.180392 0 0 0 0 0.196078 0 0 0 0.2 0"/>
<feBlend mode="normal" in2="BackgroundImageFix" result="effect1_dropShadow_750_35844"/>
<feBlend mode="normal" in="SourceGraphic" in2="effect1_dropShadow_750_35844" result="shape"/>
</filter>
</defs>
</svg>
